<?xml version="1.0" encoding="UTF-8"?>
<svg width="256px" height="256px" viewBox="0 0 256 256" version="1.1" xmlns="http://www.w3.org/2000/svg" xmlns:xlink="http://www.w3.org/1999/xlink">
    <title>Logo/full_grey</title>
    <defs>
        <linearGradient x1="12.6035095%" y1="8.37882846%" x2="92.0728991%" y2="101.974524%" id="linearGradient-1">
            <stop stop-color="#FAFAFA" offset="0%"></stop>
            <stop stop-color="#C7C7C6" offset="100%"></stop>
        </linearGradient>
    </defs>
    <g id="Logo/full_grey" stroke="none" stroke-width="1" fill="none" fill-rule="evenodd">
        <g id="rre-logo-green-white" transform="translate(34.000000, 0.000000)" fill="url(#linearGradient-1)" fill-rule="nonzero">
            <path d="M93.5012704,0 C141.825477,0 181,39.166746 181,87.4813756 C181.014023,122.867443 159.704548,154.776974 127.009632,168.328361 C94.3147162,181.879749 56.6742681,174.40378 31.6426148,149.387013 C6.61096144,124.370246 -0.881419878,86.740226 12.659683,54.0464166 C26.2007859,21.3526072 58.108186,0.0346983393 93.5012704,0.0346955563 L93.5012704,0.0346955563 Z M93.5012704,7.63301222 L93.5012704,7.66771794 C72.310504,7.61077182 51.9774612,16.031221 37.0334706,31.0525229 C10.1042725,58.0054175 5.96808448,100.223703 27.154403,131.888678 C48.3407215,163.553653 88.9489564,175.846322 124.145037,161.249071 C159.341117,146.651821 179.322601,109.230124 171.86976,71.8693149 C164.41692,34.5085062 131.605442,7.61392521 93.5012704,7.63301222 L93.5012704,7.63301222 Z M122.435872,102 C124.70722,102 126.885539,102.872407 128.491625,104.425302 C130.097711,105.978196 131,108.084374 131,110.280498 L131,110.280498 L131,123.559135 C131,123.67723 130.951019,123.790393 130.863996,123.873259 C130.776973,123.956125 130.6592,124.001765 130.537074,124 L130.537074,124 L110.462926,124 C110.209973,124 110.003833,123.803682 110,123.559135 L110,123.559135 L110,102.440813 C110.003833,102.196266 110.209973,102 110.462926,102 L110.462926,102 Z M122.534311,50 C127.215403,50.0191482 131,53.8182626 131,58.4980735 L131,58.4980735 L131,86.9269805 C131,91.6176225 127.198449,95.4212155 122.506487,95.425054 L122.506487,95.425054 L110.632262,95.425054 C110.380267,95.4213212 110.176888,95.2179996 110.173154,94.9660746 L110.173154,94.9660746 L110.173154,52.1766751 C110.175017,52.0555902 110.128204,51.9388212 110.043206,51.85254 C109.958208,51.7662588 109.842134,51.7176814 109.721001,51.7176957 L109.721001,51.7176957 L104.893402,51.7176957 C104.771067,51.7157992 104.653186,51.7635466 104.566671,51.8500365 C104.480157,51.9365263 104.432396,52.0543747 104.434293,52.1766751 L104.434293,52.1766751 L104.434293,123.547975 C104.434293,123.797621 104.231858,124 103.982141,124 L103.982141,124 L84.0248185,124 C83.7739516,124 83.5695107,123.798742 83.5657097,123.547975 L83.5657097,123.547975 L83.5657097,52.1766751 C83.5675733,52.0555902 83.5207599,51.9388212 83.435762,51.85254 C83.3507641,51.7662588 83.2346904,51.7176814 83.113557,51.7176957 L83.113557,51.7176957 L78.2790018,51.7176957 C78.1566669,51.7157992 78.0387854,51.7635466 77.9522711,51.8500365 C77.8657568,51.9365263 77.817996,52.0543747 77.819893,52.1766751 L77.819893,52.1766751 L77.819893,94.9660746 C77.8199218,95.2168708 77.6185785,95.4212541 77.3677404,95.425054 L77.3677404,95.425054 L65.4935163,95.425054 C63.2396908,95.4250548 61.0782775,94.5295027 59.4852346,92.9356046 C57.8921918,91.3417065 56.998157,89.1801701 57,86.9269805 L57,86.9269805 L57,58.4980735 C56.998157,56.244884 57.8921918,54.0833476 59.4852346,52.4894494 C61.0782775,50.8955513 63.2396908,50 65.4935163,50 L65.4935163,50 Z M77.5439359,102 C77.7958131,102 78,102.197359 78,102.440814 L78,102.440814 L78,123.559186 C78,123.802641 77.7958131,124 77.5439359,124 L77.5439359,124 L57.4560641,124 C57.2041869,124 57,123.802641 57,123.559186 L57,123.559186 L57,110.280518 C57,105.707314 60.8355719,102 65.5669896,102 L65.5669896,102 Z M0,205 L14.0869565,205 C17.5978525,205.007786 20.8197637,206.972476 22.4708213,210.112398 C24.121879,213.252319 23.9342593,217.058136 21.9826087,220.015666 C20.9430671,221.589874 19.4663696,222.816479 17.7391304,223.54047 L24,232 L16.3686957,232 L10.6573913,224.287728 L6.09391304,224.287728 L6.09391304,232 L0,232 L0,205 Z M14.0869565,218.112272 C15.0039603,218.131908 15.8871032,217.761139 16.5217391,217.090078 C17.5102952,216.098842 17.8071146,214.599209 17.2722343,213.298318 C16.737354,211.997428 15.4775829,211.155052 14.0869565,211.168407 L6.09391304,211.168407 L6.09391304,218.112272 L14.0869565,218.112272 Z M49,205 L55,205 L55,232 L49,232 L49,205 Z M87.1766891,230.195944 C85.0340768,229.035372 83.2305123,227.341166 81.9422522,225.278898 C79.3525826,221.132352 79.3525826,215.881278 81.9422522,211.734732 C83.2287262,209.67277 85.0328686,207.980386 87.1766891,206.824544 C89.3711097,205.610952 91.8432552,204.98258 94.3533777,205.000367 C96.626016,204.9912 98.8700275,205.505197 100.910199,206.502227 C102.9095,207.454066 104.65377,208.864163 106,210.61691 L101.178808,214.217258 C100.388241,213.206057 99.3687079,212.395348 98.2034439,211.851315 C95.6578491,210.657143 92.6986385,210.712928 90.2002652,212.002187 C88.9695047,212.643781 87.9239415,213.58806 87.1629143,214.745309 C85.6564619,217.021202 85.6564619,219.971854 87.1629143,222.247748 C87.92134,223.407207 88.9675488,224.352069 90.2002652,224.99087 C91.4710403,225.667416 92.8917318,226.016347 94.3327155,226.005825 C95.6630222,226.011837 96.9772609,225.716349 98.1758942,225.141742 C99.3411582,224.597709 100.360691,223.787 101.151258,222.775799 L105.97245,226.383005 C104.626788,228.1363 102.882374,229.546515 100.882649,230.497688 C98.8424778,231.494717 96.5984663,232.008715 94.3258281,231.999547 C91.8268184,232.019213 89.3647906,231.398086 87.1766891,230.195944 Z M137.176689,230.195944 C135.035376,229.033589 133.232224,227.339772 131.942252,225.278898 C129.352583,221.132352 129.352583,215.881278 131.942252,211.734732 C133.230701,209.67438 135.034364,207.982445 137.176689,206.824544 C139.37111,205.610952 141.843255,204.98258 144.353378,205.000367 C146.626016,204.9912 148.870028,205.505197 150.910199,206.502227 C152.910631,207.452284 154.655289,208.862695 156,210.61691 L151.178808,214.217258 C150.385545,213.205943 149.363763,212.395322 148.196556,211.851315 C145.650962,210.657143 142.691751,210.712928 140.193378,212.002187 C138.964605,212.643981 137.921325,213.58834 137.162914,214.745309 C135.647326,217.018466 135.647326,219.974591 137.162914,222.247748 C137.918713,223.406929 138.962641,224.351875 140.193378,224.99087 C141.464469,225.666596 142.884948,226.015474 144.325828,226.005825 C145.656135,226.011837 146.970374,225.716349 148.169007,225.141742 C149.336214,224.597735 150.357995,223.787114 151.151258,222.775799 L155.97245,226.383005 C154.628312,228.137773 152.883508,229.548303 150.882649,230.497688 C148.842478,231.494717 146.598466,232.008715 144.325828,231.999547 C141.826818,232.019213 139.364791,231.398086 137.176689,230.195944 L137.176689,230.195944 Z M181,205 L187,205 L187,232 L181,232 L181,205 Z M1.1582213,251.836649 L1.1582213,255.978202 L0,255.978202 L0,246.00941 L2.72905895,246.00941 C3.68427361,245.946324 4.63349439,246.201756 5.42916236,246.735999 C6.03594326,247.262963 6.35816985,248.047278 6.29782834,248.850371 C6.34558769,250.103732 5.51202482,251.219295 4.29989659,251.524216 L7,256 L5.63185109,256 L3.22854188,251.858446 L1.1582213,251.836649 Z M1.1582213,250.841223 L2.73629783,250.841223 C3.3728144,250.892444 4.00731679,250.720387 4.53154085,250.354409 C4.93058005,249.981254 5.14068049,249.44737 5.10341262,248.901232 C5.16096887,248.350618 4.94430322,247.806933 4.52430196,247.448055 C3.96150579,247.112745 3.3091205,246.960461 2.65667011,247.012102 L1.1582213,247.012102 L1.1582213,250.841223 Z M25,256 L20,256 L20,246 L25,246 L25,247.034985 L21.0457516,247.034985 L21.0457516,250.25656 L24.7581699,250.25656 L24.7581699,251.284257 L21.0457516,251.284257 L21.0457516,254.928571 L25,254.928571 L25,256 Z M43.9087921,256 L42.7912901,252.833696 L39.1758422,252.833696 L38.0649137,256 L37,256 L40.569433,246 L41.4502876,246 L45,256 L43.9087921,256 Z M42.462613,251.787945 L41.4108463,248.701525 C41.2793755,248.309368 41.1347576,247.837328 40.9967132,247.249092 C40.8910965,247.74135 40.7593988,248.22633 40.6023007,248.701525 L39.5768283,251.787945 L42.462613,251.787945 Z M57,256 L57,246 L58.0457516,246 L58.0457516,254.950437 L62,254.950437 L62,256 L57,256 Z M95,256 L90,256 L90,246 L95,246 L95,247.034985 L91.0732984,247.034985 L91.0732984,250.25656 L94.7971204,250.25656 L94.7971204,251.284257 L91.0732984,251.284257 L91.0732984,254.928571 L95,254.928571 L95,256 Z M112.997235,253.279647 C113.031923,254.060715 112.689653,254.809616 112.080991,255.284432 C111.357319,255.794258 110.487851,256.043515 109.609908,255.992837 C108.718693,256.035987 107.82876,255.883809 107,255.546542 L107,254.455599 C107.83712,254.815443 108.73627,255.000899 109.644614,255.00107 C110.229971,255.042601 110.813172,254.893801 111.310513,254.576028 C111.680869,254.296813 111.891477,253.848356 111.872754,253.378824 C111.884681,253.089483 111.81738,252.802473 111.678399,252.54999 C111.496218,252.298571 111.258374,252.094671 110.984274,251.95493 C110.536792,251.715385 110.072816,251.509403 109.596025,251.338618 C108.878894,251.122316 108.225454,250.728028 107.694124,250.191003 C107.299334,249.704944 107.096379,249.086079 107.124942,248.455411 C107.102278,247.757277 107.409568,247.090521 107.950951,246.663148 C108.588192,246.196996 109.361313,245.964782 110.144384,246.004331 C111.041031,245.994919 111.929804,246.175848 112.754292,246.535635 L112.40723,247.520317 C111.685346,247.193959 110.906096,247.020443 110.116619,247.010266 C109.623928,246.97533 109.134277,247.112754 108.72837,247.399888 C108.397756,247.649371 108.210411,248.050359 108.2286,248.469579 C108.218059,248.75792 108.282734,249.043945 108.416014,249.298413 C108.568269,249.54343 108.778279,249.745584 109.026843,249.886389 C109.449609,250.126525 109.893471,250.325747 110.352621,250.481449 C111.125958,250.701522 111.838754,251.101625 112.434995,251.650316 C112.824452,252.097202 113.02636,252.682315 112.997235,253.279647 L112.997235,253.279647 Z M129.040816,256 L127.959184,256 L127.959184,247.034985 L125,247.034985 L125,246 L132,246 L132,247.034985 L129.040816,247.034985 L129.040816,256 Z M149.907895,256 L148.789474,252.833696 L145.171053,252.833696 L144.059211,256 L143,256 L146.565789,246 L147.447368,246 L151,256 L149.907895,256 Z M148.460526,251.787945 L147.407895,248.701525 C147.276316,248.309368 147.138158,247.837328 146.993421,247.249092 C146.887003,247.740358 146.757441,248.225161 146.605263,248.701525 L145.539474,251.787945 L148.460526,251.787945 Z M166.048685,256 L164.95813,256 L164.95813,247.034985 L162,247.034985 L162,246 L169,246 L169,247.034985 L166.04187,247.034985 L166.048685,256 Z M187,256 L182,256 L182,246 L187,246 L187,247.034985 L183.045752,247.034985 L183.045752,250.25656 L186.764706,250.25656 L186.764706,251.284257 L183.045752,251.284257 L183.045752,254.928571 L187,254.928571 L187,256 Z" id="Combined-Shape"></path>
        </g>
    </g>
</svg>