<?xml version="1.0" encoding="UTF-8"?>
<svg width="64px" height="64px" viewBox="0 0 64 64" version="1.1" xmlns="http://www.w3.org/2000/svg" xmlns:xlink="http://www.w3.org/1999/xlink">
    <title>icon/phone</title>
    <g id="icon/phone" stroke="none" stroke-width="1" fill="none" fill-rule="evenodd">
        <g id="call">
            <g transform="translate(5.333333, 5.333333)" id="Vector" stroke="#949AA4" stroke-width="4">
                <path d="M52.5866648,46.4533335 C52.1333315,47.4133336 51.5466691,48.3200014 50.7733358,49.1733348 C49.4666691,50.6133348 48.0266657,51.6533356 46.399999,52.3200022 C44.7999989,52.9866689 43.0666687,53.3333333 41.200002,53.3333333 C38.4800021,53.3333333 35.5733322,52.6933346 32.5066655,51.3866679 C29.4399989,50.0800012 26.3733333,48.3200024 23.3333333,46.1066691 C20.2666667,43.8666692 17.3599993,41.386666 14.5866661,38.6399994 C11.8399995,35.8666662 9.3599995,32.9600007 7.14666621,29.9200007 C4.95999956,26.8800008 3.20000005,23.8400011 1.92000008,20.8266678 C0.640000105,17.7866678 0,14.8799998 0,12.1066666 C0,10.2933332 0.319999735,8.56000042 0.95999972,6.96000036 C1.59999971,5.33333365 2.61333338,3.84000015 4.02666664,2.50666682 C5.73333327,0.826666832 7.60000038,0 9.57333374,0 C10.3200004,0 11.0666669,0.160000185 11.7333336,0.480000178 C12.4266669,0.800000171 13.0400004,1.28000005 13.5200005,1.97333336 L19.7066676,10.6933339 C20.1866676,11.3600006 20.5333332,11.9733334 20.7733332,12.5600001 C21.0133332,13.1200001 21.1466675,13.6800005 21.1466675,14.1866671 C21.1466675,14.8266671 20.9600007,15.4666659 20.5866674,16.0799993 C20.2400007,16.6933326 19.7333329,17.3333327 19.0933329,17.9733327 L17.0666656,20.0799993 C16.7733323,20.3733326 16.6399994,20.7200008 16.6399994,21.1466675 C16.6399994,21.3600008 16.6666679,21.5466663 16.7200012,21.7599996 C16.8000012,21.9733329 16.880001,22.1333324 16.9333344,22.2933324 C17.4133344,23.1733325 18.2399993,24.320001 19.4133326,25.7066676 C20.6133326,27.0933342 21.8933322,28.5066675 23.2799988,29.9200007 C24.7199988,31.333334 26.1066659,32.6399989 27.5199992,33.8399989 C28.9066658,35.0133322 30.0533324,35.8133324 30.9599991,36.2933324 C31.0933324,36.3466657 31.2533332,36.4266655 31.4399999,36.5066655 C31.6533332,36.5866655 31.8666666,36.6133321 32.1066666,36.6133321 C32.5599999,36.6133321 32.9066662,36.4533345 33.1999995,36.1600011 L35.2266668,34.1600011 C35.8933334,33.4933345 36.5333341,32.9866667 37.1466675,32.6666667 C37.7600008,32.2933333 38.3733317,32.1066666 39.0399984,32.1066666 C39.546665,32.1066666 40.08,32.2133335 40.6666667,32.4533335 C41.2533333,32.6933335 41.8666687,33.0400011 42.5333354,33.4933345 L51.3600006,39.7599996 C52.0533339,40.2399996 52.5333319,40.799998 52.8266652,41.4666646 C53.0933319,42.1333313 53.2533315,42.7999998 53.2533315,43.5466665 C53.2533315,44.5066665 53.0399982,45.4933335 52.5866648,46.4533335 Z"></path>
            </g>
            <path d="M64,0 L64,64 L0,64 L0,0 L64,0 Z" id="Vector" opacity="0"></path>
        </g>
    </g>
</svg>