<svg width="561" height="64" viewBox="0 0 561 64" fill="none" xmlns="http://www.w3.org/2000/svg">
<g filter="url(#filter0_di_0_10)">
<path fill-rule="evenodd" clip-rule="evenodd" d="M445.66 16.36C444.46 16.36 443.48 16.0066 442.72 15.3C441.96 14.5933 441.58 13.72 441.58 12.68C441.58 11.6133 441.96 10.7266 442.72 10.02C443.48 9.31329 444.46 8.95996 445.66 8.95996C446.833 8.95996 447.8 9.31329 448.56 10.02C449.32 10.7266 449.7 11.6133 449.7 12.68C449.7 13.72 449.32 14.5933 448.56 15.3C447.8 16.0066 446.833 16.36 445.66 16.36ZM449.06 18.68V41H442.22V18.68H449.06ZM49.86 18.44C52.42 18.44 54.4733 19.2866 56.02 20.98C57.5666 22.6733 58.34 25 58.34 27.96V41H51.54V28.88C51.54 27.3866 51.1533 26.2266 50.38 25.4C49.6066 24.5733 48.5666 24.16 47.26 24.16C45.9533 24.16 44.9133 24.5733 44.14 25.4C43.3666 26.2266 42.98 27.3866 42.98 28.88V41H36.14V11.4H42.98V21.68C43.6733 20.6933 44.62 19.9066 45.82 19.32C47.02 18.7333 48.3666 18.44 49.86 18.44ZM32.7 12.92V18.4H25.26V41H18.42V18.4H10.98V12.92H32.7ZM84.14 29.48C84.14 30.12 84.1 30.7866 84.02 31.48H68.54C68.6466 32.8666 69.0933 33.9266 69.88 34.66C70.6666 35.3933 71.6333 35.76 72.78 35.76C74.4866 35.76 75.6733 35.04 76.34 33.6H83.62C83.2466 35.0666 82.5733 36.3866 81.6 37.56C80.6266 38.7333 79.4066 39.6533 77.94 40.32C76.4733 40.9866 74.8333 41.32 73.02 41.32C70.8333 41.32 68.8866 40.8533 67.18 39.92C65.4733 38.9866 64.14 37.6533 63.18 35.92C62.22 34.1866 61.74 32.16 61.74 29.84C61.74 27.52 62.2133 25.4933 63.16 23.76C64.1066 22.0266 65.4333 20.6933 67.14 19.76C68.8466 18.8266 70.8066 18.36 73.02 18.36C75.18 18.36 77.1 18.8133 78.78 19.72C80.46 20.6266 81.7733 21.92 82.72 23.6C83.6666 25.28 84.14 27.24 84.14 29.48ZM77.14 27.68C77.14 26.5066 76.74 25.5733 75.94 24.88C75.14 24.1866 74.14 23.84 72.94 23.84C71.7933 23.84 70.8266 24.1733 70.04 24.84C69.2533 25.5066 68.7666 26.4533 68.58 27.68H77.14ZM103.06 22.4C103.86 21.1733 104.86 20.2066 106.06 19.5C107.26 18.7933 108.593 18.44 110.06 18.44V25.68H108.18C106.473 25.68 105.193 26.0466 104.34 26.78C103.487 27.5133 103.06 28.8 103.06 30.64V41H96.22V18.68H103.06V22.4ZM134.38 29.48C134.38 30.12 134.34 30.7866 134.26 31.48H118.78C118.887 32.8666 119.333 33.9266 120.12 34.66C120.907 35.3933 121.873 35.76 123.02 35.76C124.727 35.76 125.913 35.04 126.58 33.6H133.86C133.487 35.0666 132.813 36.3866 131.84 37.56C130.867 38.7333 129.647 39.6533 128.18 40.32C126.713 40.9866 125.073 41.32 123.26 41.32C121.073 41.32 119.127 40.8533 117.42 39.92C115.713 38.9866 114.38 37.6533 113.42 35.92C112.46 34.1866 111.98 32.16 111.98 29.84C111.98 27.52 112.453 25.4933 113.4 23.76C114.347 22.0266 115.673 20.6933 117.38 19.76C119.087 18.8266 121.047 18.36 123.26 18.36C125.42 18.36 127.34 18.8133 129.02 19.72C130.7 20.6266 132.013 21.92 132.96 23.6C133.907 25.28 134.38 27.24 134.38 29.48ZM127.38 27.68C127.38 26.5066 126.98 25.5733 126.18 24.88C125.38 24.1866 124.38 23.84 123.18 23.84C122.033 23.84 121.067 24.1733 120.28 24.84C119.493 25.5066 119.007 26.4533 118.82 27.68H127.38ZM137.92 23.76C137.053 25.4933 136.62 27.5066 136.62 29.8C136.62 32.0933 137.053 34.1133 137.92 35.86C138.787 37.6066 139.967 38.9533 141.46 39.9C142.953 40.8466 144.607 41.32 146.42 41.32C147.993 41.32 149.373 41 150.56 40.36C151.747 39.72 152.673 38.88 153.34 37.84V41H160.18V18.68H153.34V21.84C152.7 20.8 151.787 19.96 150.6 19.32C149.413 18.68 148.033 18.36 146.46 18.36C144.62 18.36 142.953 18.8266 141.46 19.76C139.967 20.6933 138.787 22.0266 137.92 23.76ZM151.92 25.8C152.867 26.7866 153.34 28.1333 153.34 29.84C153.34 31.5466 152.867 32.8933 151.92 33.88C150.973 34.8666 149.82 35.36 148.46 35.36C147.1 35.36 145.947 34.86 145 33.86C144.053 32.86 143.58 31.5066 143.58 29.8C143.58 28.0933 144.053 26.7533 145 25.78C145.947 24.8066 147.1 24.32 148.46 24.32C149.82 24.32 150.973 24.8133 151.92 25.8ZM171.98 41V11.4H165.14V41H171.98ZM206.34 31.48C206.42 30.7866 206.46 30.12 206.46 29.48C206.46 27.24 205.987 25.28 205.04 23.6C204.093 21.92 202.78 20.6266 201.1 19.72C199.42 18.8133 197.5 18.36 195.34 18.36C193.127 18.36 191.167 18.8266 189.46 19.76C187.753 20.6933 186.427 22.0266 185.48 23.76C184.533 25.4933 184.06 27.52 184.06 29.84C184.06 32.16 184.54 34.1866 185.5 35.92C186.46 37.6533 187.793 38.9866 189.5 39.92C191.207 40.8533 193.153 41.32 195.34 41.32C197.153 41.32 198.793 40.9866 200.26 40.32C201.727 39.6533 202.947 38.7333 203.92 37.56C204.893 36.3866 205.567 35.0666 205.94 33.6H198.66C197.993 35.04 196.807 35.76 195.1 35.76C193.953 35.76 192.987 35.3933 192.2 34.66C191.413 33.9266 190.967 32.8666 190.86 31.48H206.34ZM198.26 24.88C199.06 25.5733 199.46 26.5066 199.46 27.68H190.9C191.087 26.4533 191.573 25.5066 192.36 24.84C193.147 24.1733 194.113 23.84 195.26 23.84C196.46 23.84 197.46 24.1866 198.26 24.88ZM213.94 40.32C215.46 40.9866 217.193 41.32 219.14 41.32C220.953 41.32 222.547 41.0266 223.92 40.44C225.293 39.8533 226.347 39.0466 227.08 38.02C227.813 36.9933 228.18 35.8266 228.18 34.52C228.153 32.9733 227.747 31.74 226.96 30.82C226.173 29.9 225.26 29.2333 224.22 28.82C223.18 28.4066 221.833 27.9866 220.18 27.56C218.74 27.24 217.68 26.92 217 26.6C216.32 26.28 215.98 25.8 215.98 25.16C215.98 24.6266 216.193 24.2066 216.62 23.9C217.047 23.5933 217.66 23.44 218.46 23.44C219.393 23.44 220.147 23.6666 220.72 24.12C221.293 24.5733 221.633 25.1866 221.74 25.96H228.06C227.82 23.6666 226.893 21.8266 225.28 20.44C223.667 19.0533 221.46 18.36 218.66 18.36C216.767 18.36 215.133 18.6666 213.76 19.28C212.387 19.8933 211.347 20.7266 210.64 21.78C209.933 22.8333 209.58 24 209.58 25.28C209.58 26.8 209.967 28.0066 210.74 28.9C211.513 29.7933 212.433 30.4466 213.5 30.86C214.567 31.2733 215.9 31.6666 217.5 32.04C218.993 32.4133 220.073 32.7533 220.74 33.06C221.407 33.3666 221.74 33.84 221.74 34.48C221.74 35.0133 221.507 35.4466 221.04 35.78C220.573 36.1133 219.913 36.28 219.06 36.28C218.127 36.28 217.34 36.04 216.7 35.56C216.06 35.08 215.7 34.4533 215.62 33.68H208.86C208.967 35.12 209.46 36.42 210.34 37.58C211.22 38.74 212.42 39.6533 213.94 40.32ZM244.82 35.2V41H241.34C238.86 41 236.927 40.3933 235.54 39.18C234.153 37.9666 233.46 35.9866 233.46 33.24V24.36H230.74V18.68H233.46V13.24H240.3V18.68H244.78V24.36H240.3V33.32C240.3 33.9866 240.46 34.4666 240.78 34.76C241.1 35.0533 241.633 35.2 242.38 35.2H244.82ZM247.26 29.8C247.26 27.5066 247.693 25.4933 248.56 23.76C249.427 22.0266 250.607 20.6933 252.1 19.76C253.593 18.8266 255.26 18.36 257.1 18.36C258.673 18.36 260.053 18.68 261.24 19.32C262.427 19.96 263.34 20.8 263.98 21.84V18.68H270.82V41H263.98V37.84C263.313 38.88 262.387 39.72 261.2 40.36C260.013 41 258.633 41.32 257.06 41.32C255.247 41.32 253.593 40.8466 252.1 39.9C250.607 38.9533 249.427 37.6066 248.56 35.86C247.693 34.1133 247.26 32.0933 247.26 29.8ZM263.98 29.84C263.98 28.1333 263.507 26.7866 262.56 25.8C261.613 24.8133 260.46 24.32 259.1 24.32C257.74 24.32 256.587 24.8066 255.64 25.78C254.693 26.7533 254.22 28.0933 254.22 29.8C254.22 31.5066 254.693 32.86 255.64 33.86C256.587 34.86 257.74 35.36 259.1 35.36C260.46 35.36 261.613 34.8666 262.56 33.88C263.507 32.8933 263.98 31.5466 263.98 29.84ZM288.22 35.2V41H284.74C282.26 41 280.327 40.3933 278.94 39.18C277.553 37.9666 276.86 35.9866 276.86 33.24V24.36H274.14V18.68H276.86V13.24H283.7V18.68H288.18V24.36H283.7V33.32C283.7 33.9866 283.86 34.4666 284.18 34.76C284.5 35.0533 285.033 35.2 285.78 35.2H288.22ZM313.06 29.48C313.06 30.12 313.02 30.7866 312.94 31.48H297.46C297.567 32.8666 298.013 33.9266 298.8 34.66C299.587 35.3933 300.553 35.76 301.7 35.76C303.407 35.76 304.593 35.04 305.26 33.6H312.54C312.167 35.0666 311.493 36.3866 310.52 37.56C309.547 38.7333 308.327 39.6533 306.86 40.32C305.393 40.9866 303.753 41.32 301.94 41.32C299.753 41.32 297.807 40.8533 296.1 39.92C294.393 38.9866 293.06 37.6533 292.1 35.92C291.14 34.1866 290.66 32.16 290.66 29.84C290.66 27.52 291.133 25.4933 292.08 23.76C293.027 22.0266 294.353 20.6933 296.06 19.76C297.767 18.8266 299.727 18.36 301.94 18.36C304.1 18.36 306.02 18.8133 307.7 19.72C309.38 20.6266 310.693 21.92 311.64 23.6C312.587 25.28 313.06 27.24 313.06 29.48ZM306.06 27.68C306.06 26.5066 305.66 25.5733 304.86 24.88C304.06 24.1866 303.06 23.84 301.86 23.84C300.713 23.84 299.747 24.1733 298.96 24.84C298.173 25.5066 297.687 26.4533 297.5 27.68H306.06ZM346.06 31.48C346.14 30.7866 346.18 30.12 346.18 29.48C346.18 27.24 345.707 25.28 344.76 23.6C343.813 21.92 342.5 20.6266 340.82 19.72C339.14 18.8133 337.22 18.36 335.06 18.36C332.847 18.36 330.887 18.8266 329.18 19.76C327.473 20.6933 326.147 22.0266 325.2 23.76C324.253 25.4933 323.78 27.52 323.78 29.84C323.78 32.16 324.26 34.1866 325.22 35.92C326.18 37.6533 327.513 38.9866 329.22 39.92C330.927 40.8533 332.873 41.32 335.06 41.32C336.873 41.32 338.513 40.9866 339.98 40.32C341.447 39.6533 342.667 38.7333 343.64 37.56C344.613 36.3866 345.287 35.0666 345.66 33.6H338.38C337.713 35.04 336.527 35.76 334.82 35.76C333.673 35.76 332.707 35.3933 331.92 34.66C331.133 33.9266 330.687 32.8666 330.58 31.48H346.06ZM337.98 24.88C338.78 25.5733 339.18 26.5066 339.18 27.68H330.62C330.807 26.4533 331.293 25.5066 332.08 24.84C332.867 24.1733 333.833 23.84 334.98 23.84C336.18 23.84 337.18 24.1866 337.98 24.88ZM358.7 34.8L362.98 41H370.66L362.98 29.92L370.46 18.68H363.06L359.46 24.84L355.18 18.68H347.5L355.06 29.6L347.7 41H355.1L358.7 34.8ZM382.9 19.32C381.727 19.96 380.807 20.8 380.14 21.84V18.68H373.3V51.64H380.14V37.88C380.807 38.8933 381.733 39.72 382.92 40.36C384.107 41 385.473 41.32 387.02 41.32C388.86 41.32 390.527 40.8466 392.02 39.9C393.513 38.9533 394.693 37.6066 395.56 35.86C396.427 34.1133 396.86 32.0933 396.86 29.8C396.86 27.5066 396.427 25.4933 395.56 23.76C394.693 22.0266 393.513 20.6933 392.02 19.76C390.527 18.8266 388.86 18.36 387.02 18.36C385.447 18.36 384.073 18.68 382.9 19.32ZM388.48 25.78C389.427 26.7533 389.9 28.0933 389.9 29.8C389.9 31.5066 389.42 32.86 388.46 33.86C387.5 34.86 386.34 35.36 384.98 35.36C383.62 35.36 382.467 34.8666 381.52 33.88C380.573 32.8933 380.1 31.5466 380.1 29.84C380.1 28.1333 380.573 26.7866 381.52 25.8C382.467 24.8133 383.62 24.32 384.98 24.32C386.367 24.32 387.533 24.8066 388.48 25.78ZM421.5 29.48C421.5 30.12 421.46 30.7866 421.38 31.48H405.9C406.007 32.8666 406.453 33.9266 407.24 34.66C408.027 35.3933 408.993 35.76 410.14 35.76C411.847 35.76 413.033 35.04 413.7 33.6H420.98C420.607 35.0666 419.933 36.3866 418.96 37.56C417.987 38.7333 416.767 39.6533 415.3 40.32C413.833 40.9866 412.193 41.32 410.38 41.32C408.193 41.32 406.247 40.8533 404.54 39.92C402.833 38.9866 401.5 37.6533 400.54 35.92C399.58 34.1866 399.1 32.16 399.1 29.84C399.1 27.52 399.573 25.4933 400.52 23.76C401.467 22.0266 402.793 20.6933 404.5 19.76C406.207 18.8266 408.167 18.36 410.38 18.36C412.54 18.36 414.46 18.8133 416.14 19.72C417.82 20.6266 419.133 21.92 420.08 23.6C421.027 25.28 421.5 27.24 421.5 29.48ZM414.5 27.68C414.5 26.5066 414.1 25.5733 413.3 24.88C412.5 24.1866 411.5 23.84 410.3 23.84C409.153 23.84 408.187 24.1733 407.4 24.84C406.613 25.5066 406.127 26.4533 405.94 27.68H414.5ZM431.94 22.4C432.74 21.1733 433.74 20.2066 434.94 19.5C436.14 18.7933 437.473 18.44 438.94 18.44V25.68H437.06C435.353 25.68 434.073 26.0466 433.22 26.78C432.367 27.5133 431.94 28.8 431.94 30.64V41H425.1V18.68H431.94V22.4ZM474.94 31.48C475.02 30.7866 475.06 30.12 475.06 29.48C475.06 27.24 474.587 25.28 473.64 23.6C472.693 21.92 471.38 20.6266 469.7 19.72C468.02 18.8133 466.1 18.36 463.94 18.36C461.727 18.36 459.767 18.8266 458.06 19.76C456.353 20.6933 455.027 22.0266 454.08 23.76C453.133 25.4933 452.66 27.52 452.66 29.84C452.66 32.16 453.14 34.1866 454.1 35.92C455.06 37.6533 456.393 38.9866 458.1 39.92C459.807 40.8533 461.753 41.32 463.94 41.32C465.753 41.32 467.393 40.9866 468.86 40.32C470.327 39.6533 471.547 38.7333 472.52 37.56C473.493 36.3866 474.167 35.0666 474.54 33.6H467.26C466.593 35.04 465.407 35.76 463.7 35.76C462.553 35.76 461.587 35.3933 460.8 34.66C460.013 33.9266 459.567 32.8666 459.46 31.48H474.94ZM466.86 24.88C467.66 25.5733 468.06 26.5066 468.06 27.68H459.5C459.687 26.4533 460.173 25.5066 460.96 24.84C461.747 24.1733 462.713 23.84 463.86 23.84C465.06 23.84 466.06 24.1866 466.86 24.88ZM498.52 20.98C496.96 19.2866 494.873 18.44 492.26 18.44C490.793 18.44 489.473 18.7266 488.3 19.3C487.127 19.8733 486.193 20.6533 485.5 21.64V18.68H478.66V41H485.5V28.88C485.5 27.3866 485.887 26.2266 486.66 25.4C487.433 24.5733 488.473 24.16 489.78 24.16C491.087 24.16 492.127 24.5733 492.9 25.4C493.673 26.2266 494.06 27.3866 494.06 28.88V41H500.86V27.96C500.86 25 500.08 22.6733 498.52 20.98ZM504.26 29.84C504.26 27.52 504.733 25.4933 505.68 23.76C506.627 22.0266 507.947 20.6933 509.64 19.76C511.333 18.8266 513.273 18.36 515.46 18.36C518.26 18.36 520.6 19.0933 522.48 20.56C524.36 22.0266 525.593 24.0933 526.18 26.76H518.9C518.287 25.0533 517.1 24.2 515.34 24.2C514.087 24.2 513.087 24.6866 512.34 25.66C511.593 26.6333 511.22 28.0266 511.22 29.84C511.22 31.6533 511.593 33.0466 512.34 34.02C513.087 34.9933 514.087 35.48 515.34 35.48C517.1 35.48 518.287 34.6266 518.9 32.92H526.18C525.593 35.5333 524.353 37.5866 522.46 39.08C520.567 40.5733 518.233 41.32 515.46 41.32C513.273 41.32 511.333 40.8533 509.64 39.92C507.947 38.9866 506.627 37.6533 505.68 35.92C504.733 34.1866 504.26 32.16 504.26 29.84ZM550.86 29.48C550.86 30.12 550.82 30.7866 550.74 31.48H535.26C535.367 32.8666 535.813 33.9266 536.6 34.66C537.387 35.3933 538.353 35.76 539.5 35.76C541.207 35.76 542.393 35.04 543.06 33.6H550.34C549.967 35.0666 549.293 36.3866 548.32 37.56C547.347 38.7333 546.127 39.6533 544.66 40.32C543.193 40.9866 541.553 41.32 539.74 41.32C537.553 41.32 535.607 40.8533 533.9 39.92C532.193 38.9866 530.86 37.6533 529.9 35.92C528.94 34.1866 528.46 32.16 528.46 29.84C528.46 27.52 528.933 25.4933 529.88 23.76C530.827 22.0266 532.153 20.6933 533.86 19.76C535.567 18.8266 537.527 18.36 539.74 18.36C541.9 18.36 543.82 18.8133 545.5 19.72C547.18 20.6266 548.493 21.92 549.44 23.6C550.387 25.28 550.86 27.24 550.86 29.48ZM543.86 27.68C543.86 26.5066 543.46 25.5733 542.66 24.88C541.86 24.1866 540.86 23.84 539.66 23.84C538.513 23.84 537.547 24.1733 536.76 24.84C535.973 25.5066 535.487 26.4533 535.3 27.68H543.86Z" fill="url(#paint0_linear_0_10)"/>
</g>
<defs>
<filter id="filter0_di_0_10" x="0.97998" y="0.959961" width="559.88" height="62.68" filterUnits="userSpaceOnUse" color-interpolation-filters="sRGB">
<feFlood flood-opacity="0" result="BackgroundImageFix"/>
<feColorMatrix in="SourceAlpha" type="matrix" values="0 0 0 0 0 0 0 0 0 0 0 0 0 0 0 0 0 0 127 0" result="hardAlpha"/>
<feOffset dy="2"/>
<feGaussianBlur stdDeviation="5"/>
<feColorMatrix type="matrix" values="0 0 0 0 0 0 0 0 0 0 0 0 0 0 0 0 0 0 0.5 0"/>
<feBlend mode="normal" in2="BackgroundImageFix" result="effect1_dropShadow_0_10"/>
<feBlend mode="normal" in="SourceGraphic" in2="effect1_dropShadow_0_10" result="shape"/>
<feColorMatrix in="SourceAlpha" type="matrix" values="0 0 0 0 0 0 0 0 0 0 0 0 0 0 0 0 0 0 127 0" result="hardAlpha"/>
<feOffset dy="1"/>
<feGaussianBlur stdDeviation="1"/>
<feComposite in2="hardAlpha" operator="arithmetic" k2="-1" k3="1"/>
<feColorMatrix type="matrix" values="0 0 0 0 0 0 0 0 0 0 0 0 0 0 0 0 0 0 0.1 0"/>
<feBlend mode="normal" in2="shape" result="effect2_innerShadow_0_10"/>
</filter>
<linearGradient id="paint0_linear_0_10" x1="-529.793" y1="25.6622" x2="-519.602" y2="168.01" gradientUnits="userSpaceOnUse">
<stop stop-color="#F0F0F0"/>
<stop offset="1" stop-color="#929292"/>
</linearGradient>
</defs>
</svg>
