<?xml version="1.0" encoding="UTF-8"?>
<svg width="128px" height="64px" viewBox="0 0 128 64" version="1.1" xmlns="http://www.w3.org/2000/svg" xmlns:xlink="http://www.w3.org/1999/xlink">
    <title>epc/d</title>
    <g id="epc/d" stroke="none" stroke-width="1" fill="none" fill-rule="evenodd">
        <g id="peb-d-(1)" transform="translate(0.000000, 13.000000)">
            <path d="M126.253219,16.1702413 L102.34084,0.835120643 C101.692692,0.31233244 100.870555,0 99.9859935,0 L11.6201626,0 C5.21174052,0 4.42369597e-16,5.29490617 4.42369597e-16,11.8002681 L4.42369597e-16,26.2024129 C4.42369597e-16,32.7064343 5.21174052,38 11.6201626,38 L99.9859935,38 C100.832038,38 101.627612,37.7144772 102.269118,37.2198391 L126.184154,22.6286863 C127.298489,21.9477212 127.986481,20.733244 128,19.419571 C128.014373,18.1018767 127.352944,16.8739946 126.253219,16.1702413" id="Fill-1" fill="#FFFFFE"></path>
            <path d="M99.9859935,3.80160858 L75.2939782,3.80160858 L75.2939782,34.2010724 L99.9859935,34.2010724 C99.9886498,34.1903485 99.9913062,34.1823056 99.9939625,34.1702413 L124.235728,19.3780161 L99.9886498,3.8310992 C99.9886498,3.82037534 99.9859935,3.80965147 99.9859935,3.80160858" id="Fill-2" fill="#DFE143"></path>
            <path d="M11.6201626,3.80160858 C7.28102996,3.80160858 3.76403482,7.38337802 3.76403482,11.8002681 L3.76403482,26.2024129 C3.76403482,30.6193029 7.28102996,34.2010724 11.6201626,34.2010724 L71.5299434,34.2010724 L71.5299434,3.80160858 L11.6201626,3.80160858" id="Fill-3" fill="#3A484D"></path>
            <path d="M28.8637984,17.3739946 C28.8637984,18.7064343 28.1877597,19.6675603 26.8330259,20.2600536 C25.7850995,20.6863271 24.5220095,20.9008043 23.0410995,20.9008043 L14.4411964,20.9008043 L14.4411964,24.7868633 C14.4411964,25.2024129 14.2632216,25.4664879 13.9046156,25.5764075 C13.8089873,25.6273458 13.4530377,25.650134 12.8354384,25.650134 C12.255028,25.650134 11.966815,25.3646113 11.966815,24.7868633 L11.966815,13.2037534 C11.966815,12.6380697 12.255028,12.3525469 12.8354384,12.3525469 L23.153994,12.3525469 C24.5512293,12.3525469 25.7372854,12.541555 26.7108343,12.9182306 C28.1465864,13.4450402 28.8637984,14.2399464 28.8637984,15.310992 L28.8637984,17.3739946 M26.4093396,17.2908847 L26.4093396,15.4839142 C26.4093396,14.7144772 25.3321934,14.3297587 23.1752448,14.3297587 L14.4411964,14.3297587 L14.4411964,18.9034853 L23.1871983,18.9034853 C25.3361779,18.9034853 26.4093396,18.3672922 26.4093396,17.2908847" id="Fill-4" fill="#FFFFFE"></path>
            <path d="M45.13787,19.002681 C45.13787,19.7104558 44.8297344,20.0603217 44.2121352,20.0603217 L32.2864935,20.0603217 L32.2864935,22.2439678 C32.2864935,23.1836461 33.3477016,23.652815 35.4674615,23.652815 L44.2121352,23.652815 C44.7912175,23.652815 45.0807586,23.9410188 45.0807586,24.5147453 C45.0807586,25.2734584 44.7912175,25.650134 44.2121352,25.650134 L35.3558952,25.650134 C34.0609291,25.650134 32.874873,25.424933 31.7977268,24.9745308 C30.4735409,24.383378 29.8121121,23.5040214 29.8121121,22.3337802 L29.8121121,15.7359249 C29.8121121,15.1045576 30.0312602,14.5281501 30.4695564,14.0134048 C31.4218546,12.9048257 33.1192563,12.3525469 35.5670743,12.3525469 L37.9870007,12.3525469 C38.5607703,12.3525469 38.8463269,12.7252011 38.8463269,13.4651475 C38.8463269,14.038874 38.5607703,14.3270777 37.9870007,14.3270777 L37.2843986,14.3270777 L37.1515815,14.3190349 C36.9656377,14.310992 36.8062572,14.30563 36.672112,14.3002681 C36.5379668,14.2975871 36.4250723,14.2949062 36.3360849,14.2949062 C33.6213047,14.2949062 32.2652428,14.7774799 32.2652428,15.7359249 L32.2652428,18.0630027 L44.2240888,18.0630027 C44.833719,18.0630027 45.13787,18.3739946 45.13787,19.002681" id="Fill-5" fill="#FFFFFE"></path>
            <path d="M63.3298195,22.1126005 C63.3298195,23.386059 62.7135484,24.3284182 61.4796782,24.9436997 C60.52738,25.4142091 59.3306985,25.650134 57.8883055,25.650134 L47.3798215,25.650134 C46.8007393,25.650134 46.50987,25.3646113 46.50987,24.7868633 L46.50987,13.2037534 C46.50987,12.6353887 46.8007393,12.3525469 47.3798215,12.3525469 L57.7435349,12.3525469 C58.671926,12.3525469 59.5192987,12.4235925 60.2843248,12.5670241 C61.1104468,12.766756 61.8090644,13.1273458 62.3815059,13.6514745 C63.013715,14.2399464 63.3298195,14.9262735 63.3298195,15.7037534 C63.3298195,16.461126 63.3005998,17.0053619 63.2421603,17.3431635 C63.2262222,17.4061662 63.1784081,17.5187668 63.0973897,17.6702413 C63.013715,17.8217158 62.904805,18.0160858 62.7626908,18.2493298 C62.4877595,18.7144772 62.3496298,18.9718499 62.3496298,19.0241287 C62.3496298,19.0576408 62.4877595,19.2908847 62.7626908,19.7131367 C62.904805,19.922252 63.013715,20.1018767 63.0973897,20.2466488 C63.1784081,20.3927614 63.2262222,20.5053619 63.2421603,20.5844504 C63.2700518,20.7024129 63.2926307,20.886059 63.3085688,21.1367292 C63.3231786,21.3887399 63.3298195,21.7131367 63.3298195,22.1126005 L63.3298195,22.1126005 Z M60.8554381,21.4383378 C60.8554381,20.5187668 59.8314187,20.0603217 57.78338,20.0603217 L48.9869077,20.0603217 L48.9869077,23.652815 L57.6173587,23.652815 C59.6175833,23.652815 60.6920731,23.2359249 60.831531,22.3954424 C60.8395001,22.3512064 60.8448127,22.2520107 60.8474691,22.0924933 C60.8527818,21.9329759 60.8554381,21.7131367 60.8554381,21.4383378 Z M60.9218466,16.8270777 C60.9218466,16.5884718 60.8979396,16.2171582 60.8554381,15.7144772 C60.7810606,14.7908847 59.7092271,14.3270777 57.6399376,14.3270777 L49.0413627,14.3270777 L49.0413627,18.0630027 L57.7408786,18.0630027 C59.8606385,18.0630027 60.9218466,17.6487936 60.9218466,16.8270777 L60.9218466,16.8270777 Z" id="Fill-6" fill="#FFFFFE"></path>
            <path d="M97.5687234,24.3806971 C96.6961155,25.2573727 95.4569325,25.652815 94.0875889,25.652815 L89.3314108,25.652815 L89.3314108,12.3525469 L94.0875889,12.3525469 C95.4569325,12.3525469 96.6961155,12.7453083 97.5687234,13.6219839 C99.046977,15.1179625 98.8995501,16.9477212 98.8995501,18.9450402 C98.8995501,20.9450402 99.046977,22.8887399 97.5687234,24.3806971 Z M95.7730371,15.4919571 C95.3267718,14.9504021 94.735736,14.6675603 93.8458619,14.6675603 L91.9027486,14.6675603 L91.9027486,23.3364611 L93.8458619,23.3364611 C94.735736,23.3364611 95.3267718,23.0563003 95.7730371,22.5134048 C96.2525066,21.9168901 96.3282123,20.963807 96.3282123,18.9450402 C96.3282123,16.9289544 96.2525066,16.0884718 95.7730371,15.4919571 L95.7730371,15.4919571 Z" id="Fill-7" fill="#1A1919"></path>
        </g>
    </g>
</svg>