<?xml version="1.0" encoding="UTF-8"?>
<svg width="64px" height="64px" viewBox="0 0 64 64" version="1.1" xmlns="http://www.w3.org/2000/svg" xmlns:xlink="http://www.w3.org/1999/xlink">
    <title>icon/bed</title>
    <g id="icon/bed" stroke="none" stroke-width="1" fill="none" fill-rule="evenodd">
        <path d="M61,30.5625 C61,28.180772 59.0524387,26.25 56.65,26.25 L28.9521,26.25 C28.2631784,22.904082 25.294608,20.500669 21.85,20.5 L16.05,20.5 C14.4759611,20.504645 12.947254,21.0229557 11.7,21.974875 L11.7,10.4375 C11.7,9.64359067 11.0508129,9 10.25,9 L4.45,9 C3.64918711,9 3,9.64359067 3,10.4375 L3,53.5625 C3,54.3564093 3.64918711,55 4.45,55 L10.25,55 C11.0508129,55 11.7,54.3564093 11.7,53.5625 L11.7,52.125 L52.3,52.125 L52.3,53.5625 C52.3,54.3564093 52.9491871,55 53.75,55 L59.55,55 C60.3508129,55 61,54.3564093 61,53.5625 L61,36.3125 C60.9991812,35.9259191 60.8413384,35.5559582 60.5621,35.286125 C60.8470499,34.7106213 60.9967647,34.0785903 61,33.4375 L61,30.5625 Z M58.1,30.5625 L58.1,33.4375 C58.1,34.2314093 57.4508129,34.875 56.65,34.875 L11.7,34.875 L11.7,29.125 L56.65,29.125 C57.4508129,29.125 58.1,29.7685907 58.1,30.5625 Z M16.05,23.3749994 L21.85,23.3749994 C23.694293,23.3740415 25.3387358,24.5261734 25.9535,26.25 L11.9465,26.25 C12.5612642,24.5261734 14.205707,23.3740415 16.05,23.3749994 Z M5.9,11.875 L8.8,11.875 L8.8,34.875 L5.9,34.875 L5.9,11.875 Z M58.1,52.125 L55.2,52.125 L55.2,50.6875 C55.2,49.8935907 54.5508129,49.25 53.75,49.25 L10.25,49.25 C9.44918711,49.25 8.8,49.8935907 8.8,50.6875 L8.8,52.125 L5.9,52.125 L5.9,37.75 L58.1,37.75 L58.1,52.125 Z" id="Shape" fill="#949AA4" fill-rule="nonzero"></path>
    </g>
</svg>