<?xml version="1.0" encoding="UTF-8"?>
<svg width="64px" height="64px" viewBox="0 0 64 64" version="1.1" xmlns="http://www.w3.org/2000/svg" xmlns:xlink="http://www.w3.org/1999/xlink">
    <title>icon/garage</title>
    <g id="icon/garage" stroke="none" stroke-width="1" fill="none" fill-rule="evenodd" stroke-dasharray="0,0" stroke-linecap="round" stroke-linejoin="round">
        <path d="M40,58.6666667 C53.3333333,58.6666667 58.6666667,53.3333333 58.6666667,40 L58.6666667,24 C58.6666667,10.6666667 53.3333333,5.33333333 40,5.33333333 L24,5.33333333 C10.6666667,5.33333333 5.33333333,10.6666667 5.33333333,24 L5.33333333,40 C5.33333333,53.3333333 10.6666667,58.6666667 24,58.6666667 L40,58.6666667 Z" id="Vector" stroke="#949AA4" stroke-width="4" fill-rule="nonzero"></path>
        <g id="Group" transform="translate(17.000000, 17.000000)" stroke="#949AA4" stroke-width="3.12949091">
            <path d="M9.73679938,0 C6.01338275,0 5.18597187,1.87772313 4.71020195,4.1935566 L3.01396363,12.3719598 L27.0093285,12.3719598 L25.3130902,4.1935566 C24.8373202,1.87772313 24.0099094,0 20.2864927,0 L9.73679938,0 Z" id="Vector" fill-rule="nonzero"></path>
            <g transform="translate(0.000000, 12.350949)" fill-rule="nonzero" id="Vector">
                <path d="M26.9459642,16.6490513 L24.1327147,16.6490513 C22.5192342,16.6490513 22.2916945,15.9605603 22.0020954,15.084299 L21.6917918,14.1870623 C21.2780788,12.9561238 21.0091867,12.1216096 18.8371937,12.1216096 L11.1628053,12.1216096 C9.0114979,12.1216096 8.68051736,13.0604406 8.30817567,14.1870623 L7.99790357,15.084299 C7.70830449,15.9396969 7.48076483,16.6490513 5.8672843,16.6490513 L3.0540346,16.6490513 C1.25438318,16.6490513 -0.152243382,15.1259901 0.0132418017,13.3526041 L0.861360976,4.13103273 C1.06821746,1.85692595 1.50259864,0 5.4328718,0 L24.5670957,0 C28.4973688,0 28.9317814,1.85692595 29.1386379,4.13103273 L29.986757,13.3526041 C30.1522422,15.1259901 28.7456156,16.6490513 26.9459642,16.6490513 Z"></path>
            </g>
            <line x1="3.01298515" y1="7.82376162" x2="1.50294165" y2="7.82376162" id="Vector"></line>
            <line x1="28.5185513" y1="7.82376162" x2="27.0085078" y2="7.82376162" id="Vector"></line>
            <line x1="6.01176659" y1="18.4225137" x2="10.5005801" y2="18.4225137" id="Vector" opacity="0.400000006"></line>
            <line x1="19.5180406" y1="18.4225137" x2="24.0068541" y2="18.4225137" id="Vector" opacity="0.400000006"></line>
        </g>
    </g>
</svg>