<?xml version="1.0" encoding="UTF-8"?>
<svg width="64px" height="64px" viewBox="0 0 64 64" version="1.1" xmlns="http://www.w3.org/2000/svg" xmlns:xlink="http://www.w3.org/1999/xlink">
    <title>icon/immeuble</title>
    <g id="icon/immeuble" stroke="none" stroke-width="1" fill="none" fill-rule="evenodd" stroke-dasharray="0,0" stroke-linecap="round" stroke-linejoin="round">
        <g id="vuesax/twotone/buliding" transform="translate(4.982001, 6.333333)" stroke="#949AA4" stroke-width="4">
            <g id="buliding">
                <line x1="0.0179986055" y1="50" x2="54.0179986" y2="51.6666666" id="Vector" fill="#292D32" transform="translate(27.017999, 51.000000) rotate(-1.767827) translate(-27.017999, -51.000000) "></line>
                <path d="M9.79577639,0 C3.96244305,0 2.01799861,3.57999992 2.01799861,8 L2.01799861,50 L37.0179986,50 L37.0179986,8 C37.0179986,3.57999992 35.0735542,0 29.2402208,0 L9.79577639,0 Z" id="Vector" fill-rule="nonzero"></path>
                <line x1="10.0179986" y1="39" x2="16.0179986" y2="39" id="Vector" opacity="0.400000006"></line>
                <line x1="24.0179986" y1="39" x2="30.0179986" y2="39" id="Vector" opacity="0.400000006"></line>
                <line x1="10.0179986" y1="30" x2="16.0179986" y2="30" id="Vector" opacity="0.400000006"></line>
                <line x1="24.0179986" y1="30" x2="30.0179986" y2="30" id="Vector" opacity="0.400000006"></line>
                <line x1="10.0179986" y1="21" x2="16.0179986" y2="21" id="Vector" opacity="0.400000006"></line>
                <line x1="10.0179986" y1="11" x2="16.0179986" y2="11" id="Vector-Copy" opacity="0.400000006"></line>
                <line x1="24.0179986" y1="21" x2="30.0179986" y2="21" id="Vector" opacity="0.400000006"></line>
                <line x1="24.0179986" y1="11" x2="30.0179986" y2="11" id="Vector-Copy-2" opacity="0.400000006"></line>
            </g>
        </g>
        <g id="vuesax/twotone/buliding-copy" transform="translate(36.000000, 27.333333)" stroke="#949AA4" stroke-width="4">
            <g id="buliding">
                <path d="M4.88888889,1.13686838e-13 C1.22222222,1.13686838e-13 0,2.59549994 0,5.8 L0,29 L22,29 L22,5.8 C22,2.59549994 20.7777778,1.13686838e-13 17.1111111,1.13686838e-13 L4.88888889,1.13686838e-13 Z" id="Vector" fill="#F1F4F6" fill-rule="nonzero"></path>
                <line x1="8" y1="18" x2="14" y2="18" id="Vector" opacity="0.400000006"></line>
                <line x1="8" y1="9" x2="14" y2="9" id="Vector" opacity="0.400000006"></line>
                <line x1="8" y1="0" x2="14" y2="0" id="Vector" opacity="0.400000006"></line>
            </g>
        </g>
    </g>
</svg>