<?xml version="1.0" encoding="UTF-8"?>
<svg width="64px" height="64px" viewBox="0 0 64 64" version="1.1" xmlns="http://www.w3.org/2000/svg" xmlns:xlink="http://www.w3.org/1999/xlink">
    <title>icon/round/phone</title>
    <g id="icon/round/phone" stroke="none" stroke-width="1" fill="none" fill-rule="evenodd">
        <g id="call" transform="translate(14.603774, 14.603774)">
            <g transform="translate(3.000000, 3.000000)" id="Vector" stroke="#FFFFFF" stroke-width="1.28301887">
                <path d="M29.579999,26.1300001 C29.324999,26.6700001 28.9950014,27.1800008 28.5600014,27.6600008 C27.8250014,28.4700008 27.0149994,29.0550013 26.0999994,29.4300013 C25.1999994,29.8050013 24.2250011,30 23.1750011,30 C21.6450012,30 20.0099993,29.6400007 18.2849994,28.9050007 C16.5599994,28.1700007 14.835,27.1800013 13.125,25.9350014 C11.4,24.6750014 9.76499963,23.2799996 8.20499969,21.7349997 C6.65999973,20.1749997 5.26499972,18.5400004 4.01999974,16.8300004 C2.78999975,15.1200004 1.80000003,13.4100006 1.08000004,11.7150006 C0.360000059,10.0050007 0,8.36999989 0,6.80999994 C0,5.78999993 0.179999851,4.81500024 0.539999843,3.9150002 C0.899999835,3 1.47000003,2.16000009 2.26499999,1.41000009 C3.22499996,0.465000093 4.27500021,0 5.38500023,0 C5.80500023,0 6.22500014,0.0900001042 6.60000014,0.2700001 C6.99000013,0.450000096 7.33500025,0.720000029 7.60500026,1.11000001 L11.0850005,6.01500034 C11.3550005,6.39000034 11.5499999,6.73500006 11.6849999,7.06500006 C11.8199999,7.38000005 11.8950005,7.69500026 11.8950005,7.98000026 C11.8950005,8.34000025 11.7900004,8.69999959 11.5800004,9.0449996 C11.3850004,9.38999961 11.0999998,9.74999966 10.7399998,10.1099997 L9.59999943,11.2949996 C9.43499943,11.4599996 9.35999966,11.6550005 9.35999966,11.8950005 C9.35999966,12.0150005 9.37500069,12.1199998 9.40500069,12.2399998 C9.45000069,12.3599998 9.49500057,12.4499995 9.52500057,12.5399995 C9.79500058,13.0349995 10.2599996,13.6800005 10.9199996,14.4600005 C11.5949996,15.2400005 12.3149993,16.0350004 13.0949993,16.8300004 C13.9049993,17.6250004 14.6849996,18.3599994 15.4799995,19.0349994 C16.2599995,19.6949994 16.9049995,20.1449995 17.4149995,20.4149995 C17.4899995,20.4449995 17.5799999,20.4899994 17.6849999,20.5349994 C17.8049999,20.5799994 17.9249999,20.5949993 18.0599999,20.5949993 C18.3149999,20.5949993 18.5099997,20.5050006 18.6749997,20.3400006 L19.8150001,19.2150006 C20.1900001,18.8400006 20.5500005,18.555 20.8950005,18.375 C21.2400005,18.165 21.5849991,18.0599999 21.9599991,18.0599999 C22.2449991,18.0599999 22.545,18.1200001 22.875,18.2550001 C23.205,18.3900001 23.5500011,18.5850006 23.9250011,18.8400006 L28.8900003,22.3649998 C29.2800003,22.6349998 29.5499992,22.9499989 29.7149992,23.3249989 C29.8649992,23.6999989 29.954999,24.0749999 29.954999,24.4949999 C29.954999,25.0349999 29.834999,25.5900001 29.579999,26.1300001 Z"></path>
            </g>
            <path d="M36,0 L36,36 L0,36 L0,0 L36,0 Z" id="Vector" opacity="0"></path>
        </g>
        <circle id="Oval" stroke="#FFFFFF" stroke-width="1.28301887" cx="32" cy="32" r="31.3584906"></circle>
    </g>
</svg>