<?xml version="1.0" encoding="UTF-8"?>
<svg width="64px" height="64px" viewBox="0 0 64 64" version="1.1" xmlns="http://www.w3.org/2000/svg" xmlns:xlink="http://www.w3.org/1999/xlink">
    <title>icon/terrain_2</title>
    <g id="icon/terrain_2" stroke="none" stroke-width="1" fill="none" fill-rule="evenodd">
        <g id="maximize-3">
            <path d="M40,58.6666667 C53.3333333,58.6666667 58.6666667,53.3333333 58.6666667,40 L58.6666667,24 C58.6666667,10.6666667 53.3333333,5.33333333 40,5.33333333 L24,5.33333333 C10.6666667,5.33333333 5.33333333,10.6666667 5.33333333,24 L5.33333333,40 C5.33333333,53.3333333 10.6666667,58.6666667 24,58.6666667 L40,58.6666667 Z" id="Vector" stroke="#949AA4" stroke-width="4" stroke-linecap="round" stroke-linejoin="round" stroke-dasharray="0,0" fill-rule="nonzero"></path>
            <g id="Group-665" transform="translate(16.000000, 16.000000)" stroke="#949AA4" stroke-dasharray="0,0" stroke-linecap="round" stroke-linejoin="round" stroke-width="4">
                <line x1="32" y1="0" x2="0" y2="32" id="Vector"></line>
                <path d="M32,10.6666667 L32,0 L21.3333333,0" id="Vector" fill-rule="nonzero"></path>
                <path d="M0,21.3333333 L0,32 L10.6666667,32" id="Vector" fill-rule="nonzero"></path>
            </g>
            <path d="M64,0 L64,64 L0,64 L0,0 L64,0 Z" id="Vector" opacity="0"></path>
        </g>
    </g>
</svg>