<?xml version="1.0" encoding="UTF-8"?>
<svg width="64px" height="64px" viewBox="0 0 64 64" version="1.1" xmlns="http://www.w3.org/2000/svg" xmlns:xlink="http://www.w3.org/1999/xlink">
    <title>icon/virtual</title>
    <g id="icon/virtual" stroke="none" stroke-width="1" fill="none" fill-rule="evenodd">
        <g id="Group" transform="translate(6.000000, -2.000000)">
            <g id="location"></g>
            <path d="M25.5,58 C39.5832611,58 51,53.3036677 51,47.5104483 C51,43.878115 45.2859081,40.0875346 36.8362774,40.0009142 C35.5713655,39.9880955 32.9877267,46.7393808 25.4993495,46.7393808 C18.8718262,46.7393808 14.8208346,40.0009142 14.0773542,40.0009142 C6.12380105,40.0009142 0,43.8697747 0,47.5104483 C0,53.3036677 11.4167389,58 25.5,58 Z" id="Oval" stroke="#D4D7DB" stroke-width="4" stroke-linecap="round" stroke-linejoin="round" stroke-dasharray="0,0"></path>
            <path d="M24.6305386,54.2750112 L32.24964,55.5144337 L31.8432213,55.7847514 C30.78699,56.4872733 30.5002518,57.9130246 31.2027738,58.969256 C31.5505386,59.4921154 32.0972107,59.8497934 32.715582,59.9590602 L32.715582,59.9590602 L32.715582,59.9590602 L24.6305386,62.3600546 L24.6305386,54.2750112 Z" id="Rectangle" fill="#FFFFFF" transform="translate(28.673060, 58.317533) rotate(-4.000000) translate(-28.673060, -58.317533) "></path>
            <path d="M15,61 L22,54 L29,61" id="Path" stroke="#D4D7DB" stroke-width="4" stroke-linecap="round" stroke-linejoin="round" stroke-dasharray="0,0" transform="translate(22.000000, 57.500000) rotate(-270.000000) translate(-22.000000, -57.500000) "></path>
        </g>
        <g id="Vector" transform="translate(6.000000, -2.000000)">
            <path d="M25.5018259,28.538626 C21.840178,28.538626 18.8718262,25.5702742 18.8718262,21.9086263 C18.8718262,18.2469783 21.840178,15.2786255 25.5018259,15.2786255 C29.1634739,15.2786255 32.1318257,18.2469783 32.1318257,21.9086263 C32.1318257,25.5702742 29.1634739,28.538626 25.5018259,28.538626 Z" stroke="#949AA4" stroke-width="4" stroke-dasharray="0,0"></path>
            <path d="M43.3068821,18.0625051 C45.7506321,28.8575049 39.0356327,37.9950058 33.1493827,43.647506 C28.8781327,47.7700061 22.1206326,47.7700061 17.8281326,43.647506 C11.9631326,37.9950058 5.24813171,28.8362544 7.69188166,18.0412546 C11.8781317,-0.361245096 39.1418821,-0.339994609 43.3068821,18.0625051 Z" stroke="#949AA4" stroke-width="4" stroke-dasharray="0,0" fill-rule="nonzero"></path>
            <path d="M51,0 L51,51 L0,51 L0,0 L51,0 Z" opacity="0" transform="translate(25.500000, 25.500000) rotate(-180.000000) translate(-25.500000, -25.500000) "></path>
        </g>
    </g>
</svg>