<svg xmlns="http://www.w3.org/2000/svg" xmlns:xlink="http://www.w3.org/1999/xlink" width="256" zoomAndPan="magnify" viewBox="0 0 192 191.999996" height="256" preserveAspectRatio="xMidYMid meet" version="1.0"><defs><clipPath id="id1"><path d="M 0 0 L 191.824219 0 L 191.824219 191.824219 L 0 191.824219 Z M 0 0 " clip-rule="nonzero"/></clipPath><clipPath id="id2"><path d="M 51.546875 48.382812 L 140.453125 48.382812 L 140.453125 137.289062 L 51.546875 137.289062 Z M 51.546875 48.382812 " clip-rule="nonzero"/></clipPath></defs><g clip-path="url(#id1)"><path fill="#003030" d="M 95.90625 0 C 122.390625 0 146.367188 10.734375 163.71875 28.089844 C 181.078125 45.445312 191.8125 69.421875 191.8125 95.90625 C 191.8125 122.386719 181.078125 146.367188 163.71875 163.71875 C 146.367188 181.078125 122.390625 191.8125 95.90625 191.8125 C 69.421875 191.8125 45.445312 181.078125 28.089844 163.71875 C 10.734375 146.367188 0 122.386719 0 95.90625 C 0 69.421875 10.734375 45.445312 28.089844 28.089844 C 45.445312 10.734375 69.421875 0 95.90625 0 Z M 156.1875 35.625 C 140.761719 20.199219 119.445312 10.65625 95.90625 10.65625 C 72.367188 10.65625 51.050781 20.199219 35.625 35.625 C 20.199219 51.050781 10.65625 72.363281 10.65625 95.90625 C 10.65625 119.445312 20.199219 140.761719 35.625 156.1875 C 51.050781 171.613281 72.367188 181.15625 95.90625 181.15625 C 119.445312 181.15625 140.761719 171.613281 156.1875 156.1875 C 171.613281 140.761719 181.15625 119.445312 181.15625 95.90625 C 181.15625 72.363281 171.613281 51.050781 156.1875 35.625 " fill-opacity="1" fill-rule="nonzero"/></g><g clip-path="url(#id2)"><path fill="#003030" d="M 96 48.382812 L 51.546875 84.558594 L 51.546875 137.289062 L 63.195312 137.289062 L 84.042969 111.539062 L 84.042969 86.398438 L 73.621094 86.398438 L 73.621094 106.632812 L 63.195312 120.121094 L 63.195312 86.398438 L 96 62.484375 L 128.804688 86.398438 L 128.804688 120.121094 L 118.378906 106.632812 L 118.378906 86.398438 L 107.957031 86.398438 L 107.957031 111.539062 L 128.804688 137.289062 L 140.453125 137.289062 L 140.453125 84.558594 Z M 96 48.382812 " fill-opacity="1" fill-rule="nonzero"/></g></svg>