<svg xmlns="http://www.w3.org/2000/svg" xmlns:xlink="http://www.w3.org/1999/xlink" width="256" zoomAndPan="magnify" viewBox="0 0 192 191.999996" height="256" preserveAspectRatio="xMidYMid meet" version="1.0"><defs><g/><clipPath id="id1"><path d="M 19.707031 0 L 171.957031 0 L 171.957031 152.25 L 19.707031 152.25 Z M 19.707031 0 " clip-rule="nonzero"/></clipPath><clipPath id="id2"><path d="M 60.671875 38.453125 L 131.171875 38.453125 L 131.171875 108.953125 L 60.671875 108.953125 Z M 60.671875 38.453125 " clip-rule="nonzero"/></clipPath></defs><g clip-path="url(#id1)"><path fill="#003030" d="M 95.824219 0 C 116.847656 0 135.875 8.519531 149.648438 22.292969 C 163.425781 36.070312 171.945312 55.101562 171.945312 76.117188 C 171.945312 97.136719 163.425781 116.167969 149.648438 129.941406 C 135.875 143.71875 116.847656 152.238281 95.824219 152.238281 C 74.808594 152.238281 55.777344 143.71875 42 129.941406 C 28.226562 116.167969 19.707031 97.136719 19.707031 76.117188 C 19.707031 55.101562 28.226562 36.070312 42 22.292969 C 55.777344 8.519531 74.808594 0 95.824219 0 Z M 143.671875 28.277344 C 131.425781 16.03125 114.511719 8.457031 95.824219 8.457031 C 77.140625 8.457031 60.226562 16.03125 47.984375 28.277344 C 35.738281 40.519531 28.164062 57.433594 28.164062 76.117188 C 28.164062 94.804688 35.738281 111.71875 47.984375 123.964844 C 60.226562 136.207031 77.140625 143.78125 95.824219 143.78125 C 114.511719 143.78125 131.425781 136.207031 143.671875 123.964844 C 155.914062 111.71875 163.488281 94.804688 163.488281 76.117188 C 163.488281 57.433594 155.914062 40.519531 143.671875 28.277344 " fill-opacity="1" fill-rule="nonzero"/></g><g clip-path="url(#id2)"><path fill="#003030" d="M 95.921875 38.453125 L 60.671875 67.136719 L 60.671875 108.953125 L 69.910156 108.953125 L 86.441406 88.53125 L 86.441406 68.597656 L 78.175781 68.597656 L 78.175781 84.640625 L 69.910156 95.335938 L 69.910156 68.597656 L 95.921875 49.632812 L 121.933594 68.597656 L 121.933594 95.335938 L 113.667969 84.640625 L 113.667969 68.597656 L 105.402344 68.597656 L 105.402344 88.53125 L 121.933594 108.953125 L 131.171875 108.953125 L 131.171875 67.136719 Z M 95.921875 38.453125 " fill-opacity="1" fill-rule="nonzero"/></g><g fill="#003030" fill-opacity="1"><g transform="translate(13.9884, 181.154161)"><g><path d="M 6.757812 0.222656 C 9.726562 0.222656 12.628906 -1.199219 12.628906 -5.304688 C 12.628906 -8.839844 10.167969 -10.042969 8.050781 -11.082031 C 6.285156 -11.96875 4.738281 -12.726562 4.738281 -14.558594 C 4.738281 -15.566406 5.082031 -16.578125 6.441406 -16.578125 C 7.800781 -16.578125 8.082031 -15.316406 8.210938 -14.335938 L 8.273438 -13.734375 L 12.03125 -13.734375 L 12.03125 -14.335938 C 11.902344 -16.136719 11.113281 -19.734375 6.503906 -19.734375 C 1.769531 -19.734375 0.949219 -16.734375 0.949219 -14.335938 C 0.949219 -10.703125 3.664062 -9.347656 5.96875 -8.210938 C 7.703125 -7.355469 8.839844 -6.597656 8.839844 -4.957031 C 8.839844 -4.671875 8.839844 -2.9375 6.914062 -2.9375 C 4.925781 -2.9375 4.738281 -4.292969 4.738281 -5.335938 L 4.738281 -5.9375 L 0.914062 -5.9375 L 0.914062 -5.335938 C 1.042969 -1.199219 4.011719 0.222656 6.757812 0.222656 Z M 6.757812 0.222656 "/></g></g></g><g fill="#003030" fill-opacity="1"><g transform="translate(26.58548, 181.154161)"><g><path d="M 1.390625 0 L 10.703125 0 L 10.703125 -3.15625 L 5.179688 -3.15625 L 5.179688 -7.609375 L 9.21875 -7.609375 L 9.21875 -10.765625 L 5.179688 -10.765625 L 5.179688 -16.355469 L 10.703125 -16.355469 L 10.703125 -19.515625 L 1.390625 -19.515625 Z M 1.390625 0 "/></g></g></g><g fill="#003030" fill-opacity="1"><g transform="translate(37.73025, 181.154161)"><g><path d="M 7.011719 0.191406 C 10.230469 0.191406 12.660156 -2.019531 12.820312 -4.988281 L 12.820312 -5.621094 L 9.03125 -5.621094 L 9.03125 -4.988281 C 9.03125 -3.535156 7.957031 -2.9375 7.011719 -2.9375 C 6.0625 -2.9375 5.019531 -3.503906 5.019531 -5.050781 L 5.019531 -14.460938 C 5.019531 -16.007812 6.0625 -16.578125 7.011719 -16.578125 C 7.988281 -16.578125 9 -16.039062 9.03125 -14.523438 L 9.03125 -13.894531 L 12.820312 -13.894531 L 12.820312 -14.523438 C 12.695312 -17.523438 10.230469 -19.734375 7.011719 -19.734375 C 3.664062 -19.734375 1.230469 -17.398438 1.230469 -14.273438 L 1.230469 -5.242188 C 1.230469 -2.117188 3.664062 0.191406 7.011719 0.191406 Z M 7.011719 0.191406 "/></g></g></g><g fill="#003030" fill-opacity="1"><g transform="translate(50.358899, 181.154161)"><g><path d="M 7.042969 0.222656 C 10.421875 0.222656 12.851562 -2.117188 12.851562 -5.242188 L 12.851562 -14.273438 C 12.851562 -17.398438 10.421875 -19.734375 7.042969 -19.734375 C 3.664062 -19.734375 1.230469 -17.398438 1.230469 -14.273438 L 1.230469 -5.242188 C 1.230469 -2.117188 3.664062 0.222656 7.042969 0.222656 Z M 7.042969 -2.9375 C 6.0625 -2.9375 5.019531 -3.503906 5.019531 -5.050781 L 5.019531 -14.460938 C 5.019531 -16.007812 6.0625 -16.578125 7.042969 -16.578125 C 8.019531 -16.578125 9.0625 -16.007812 9.0625 -14.460938 L 9.0625 -5.050781 C 9.0625 -3.503906 8.019531 -2.9375 7.042969 -2.9375 Z M 7.042969 -2.9375 "/></g></g></g><g fill="#003030" fill-opacity="1"><g transform="translate(63.80842, 181.154161)"><g><path d="M 1.390625 0 L 5.179688 0 L 5.179688 -9.378906 L 9.535156 0 L 12.820312 0 L 12.820312 -19.515625 L 9.03125 -19.515625 L 9.03125 -9.976562 L 4.671875 -19.515625 L 1.390625 -19.515625 Z M 1.390625 0 "/></g></g></g><g fill="#003030" fill-opacity="1"><g transform="translate(77.384233, 181.154161)"><g><path d="M 1.390625 0 L 7.136719 0 C 10.453125 0 12.914062 -2.304688 12.914062 -5.460938 L 12.914062 -14.019531 C 12.914062 -17.175781 10.453125 -19.515625 7.136719 -19.515625 L 1.390625 -19.515625 Z M 5.179688 -3.125 L 5.179688 -16.355469 L 7.136719 -16.355469 C 8.082031 -16.355469 9.125 -15.789062 9.125 -14.242188 L 9.125 -5.242188 C 9.125 -3.695312 8.082031 -3.125 7.136719 -3.125 Z M 5.179688 -3.125 "/></g></g></g><g fill="#003030" fill-opacity="1"><g transform="translate(90.739043, 181.154161)"><g><path d="M 1.390625 0 L 5.179688 0 L 5.179688 -7.515625 L 8.96875 -7.515625 L 8.96875 0 L 12.757812 0 L 12.757812 -19.515625 L 8.96875 -19.515625 L 8.96875 -10.703125 L 5.179688 -10.703125 L 5.179688 -19.515625 L 1.390625 -19.515625 Z M 1.390625 0 "/></g></g></g><g fill="#003030" fill-opacity="1"><g transform="translate(104.25171, 181.154161)"><g><path d="M 7.042969 0.222656 C 10.421875 0.222656 12.851562 -2.117188 12.851562 -5.242188 L 12.851562 -14.273438 C 12.851562 -17.398438 10.421875 -19.734375 7.042969 -19.734375 C 3.664062 -19.734375 1.230469 -17.398438 1.230469 -14.273438 L 1.230469 -5.242188 C 1.230469 -2.117188 3.664062 0.222656 7.042969 0.222656 Z M 7.042969 -2.9375 C 6.0625 -2.9375 5.019531 -3.503906 5.019531 -5.050781 L 5.019531 -14.460938 C 5.019531 -16.007812 6.0625 -16.578125 7.042969 -16.578125 C 8.019531 -16.578125 9.0625 -16.007812 9.0625 -14.460938 L 9.0625 -5.050781 C 9.0625 -3.503906 8.019531 -2.9375 7.042969 -2.9375 Z M 7.042969 -2.9375 "/></g></g></g><g fill="#003030" fill-opacity="1"><g transform="translate(117.701231, 181.154161)"><g><path d="M 1.390625 0 L 5.179688 0 L 5.179688 -10.988281 L 7.703125 -4.324219 L 9.410156 -4.324219 L 11.9375 -10.988281 L 11.9375 0 L 15.726562 0 L 15.726562 -19.515625 L 11.589844 -19.515625 L 8.558594 -11.179688 L 5.527344 -19.515625 L 1.390625 -19.515625 Z M 1.390625 0 "/></g></g></g><g fill="#003030" fill-opacity="1"><g transform="translate(134.18166, 181.154161)"><g><path d="M 1.390625 0 L 10.703125 0 L 10.703125 -3.15625 L 5.179688 -3.15625 L 5.179688 -7.609375 L 9.21875 -7.609375 L 9.21875 -10.765625 L 5.179688 -10.765625 L 5.179688 -16.355469 L 10.703125 -16.355469 L 10.703125 -19.515625 L 1.390625 -19.515625 Z M 1.390625 0 "/></g></g></g><g fill="#003030" fill-opacity="1"><g transform="translate(145.326425, 181.154161)"><g><path d="M 1.390625 0 L 4.863281 0 L 4.863281 -3.472656 L 1.390625 -3.472656 Z M 1.390625 0 "/></g></g></g><g fill="#003030" fill-opacity="1"><g transform="translate(150.946105, 181.154161)"><g><path d="M 1.390625 0 L 5.210938 0 L 5.210938 -4.769531 L 7.042969 -4.769531 C 9.945312 -4.769531 12.757812 -6.789062 12.757812 -10.230469 L 12.757812 -13.988281 C 12.757812 -17.492188 9.945312 -19.515625 7.042969 -19.515625 L 1.390625 -19.515625 Z M 5.210938 -7.894531 L 5.210938 -16.355469 L 6.976562 -16.355469 C 7.925781 -16.355469 9 -15.535156 9 -13.925781 L 9 -10.355469 C 9 -8.746094 7.925781 -7.894531 6.976562 -7.894531 Z M 5.210938 -7.894531 "/></g></g></g><g fill="#003030" fill-opacity="1"><g transform="translate(163.985194, 181.154161)"><g><path d="M 1.390625 0 L 5.179688 0 L 5.179688 -3.285156 L 6.882812 -7.042969 L 9.535156 0 L 13.578125 0 L 9.347656 -11.179688 L 13.324219 -19.515625 L 9.15625 -19.515625 L 5.179688 -11.179688 L 5.179688 -19.515625 L 1.390625 -19.515625 Z M 1.390625 0 "/></g></g></g><g fill="#003030" fill-opacity="1"><g transform="translate(25.707077, 191.630863)"><g><path d="M 1.734375 -5.046875 L 1.734375 -2.875 L 4.640625 -2.875 L 4.640625 -5.046875 L 5.421875 -5.046875 L 5.421875 0 L 4.640625 0 L 4.640625 -2.125 L 1.734375 -2.125 L 1.734375 0 L 0.953125 0 L 0.953125 -5.046875 Z M 1.734375 -5.046875 "/></g></g></g><g fill="#003030" fill-opacity="1"><g transform="translate(34.18964, 191.630863)"><g><path d="M 5.984375 -2.515625 C 5.984375 -2.148438 5.914062 -1.8125 5.78125 -1.5 C 5.644531 -1.1875 5.457031 -0.910156 5.21875 -0.671875 C 4.976562 -0.441406 4.691406 -0.257812 4.359375 -0.125 C 4.035156 0.0078125 3.675781 0.078125 3.28125 0.078125 C 2.882812 0.078125 2.519531 0.0078125 2.1875 -0.125 C 1.851562 -0.257812 1.566406 -0.441406 1.328125 -0.671875 C 1.085938 -0.910156 0.898438 -1.1875 0.765625 -1.5 C 0.640625 -1.8125 0.578125 -2.148438 0.578125 -2.515625 C 0.578125 -2.878906 0.640625 -3.21875 0.765625 -3.53125 C 0.898438 -3.851562 1.085938 -4.128906 1.328125 -4.359375 C 1.566406 -4.597656 1.851562 -4.78125 2.1875 -4.90625 C 2.519531 -5.039062 2.882812 -5.109375 3.28125 -5.109375 C 3.675781 -5.109375 4.035156 -5.039062 4.359375 -4.90625 C 4.691406 -4.78125 4.976562 -4.597656 5.21875 -4.359375 C 5.457031 -4.128906 5.644531 -3.851562 5.78125 -3.53125 C 5.914062 -3.21875 5.984375 -2.878906 5.984375 -2.515625 Z M 5.1875 -2.515625 C 5.1875 -2.867188 5.101562 -3.179688 4.9375 -3.453125 C 4.78125 -3.734375 4.554688 -3.953125 4.265625 -4.109375 C 3.972656 -4.273438 3.644531 -4.359375 3.28125 -4.359375 C 2.894531 -4.359375 2.554688 -4.273438 2.265625 -4.109375 C 1.984375 -3.953125 1.765625 -3.734375 1.609375 -3.453125 C 1.453125 -3.179688 1.375 -2.867188 1.375 -2.515625 C 1.375 -2.171875 1.453125 -1.859375 1.609375 -1.578125 C 1.765625 -1.304688 1.984375 -1.085938 2.265625 -0.921875 C 2.554688 -0.765625 2.894531 -0.6875 3.28125 -0.6875 C 3.644531 -0.6875 3.972656 -0.765625 4.265625 -0.921875 C 4.554688 -1.085938 4.78125 -1.304688 4.9375 -1.578125 C 5.101562 -1.859375 5.1875 -2.171875 5.1875 -2.515625 Z M 5.1875 -2.515625 "/></g></g></g><g fill="#003030" fill-opacity="1"><g transform="translate(42.859404, 191.630863)"><g><path d="M 1.71875 -5.046875 L 3.5625 -2.34375 L 5.4375 -5.046875 L 6.171875 -5.046875 L 6.171875 0 L 5.390625 0 L 5.390625 -2.09375 C 5.390625 -2.40625 5.394531 -2.695312 5.40625 -2.96875 C 5.425781 -3.25 5.445312 -3.523438 5.46875 -3.796875 L 3.78125 -1.453125 L 3.3125 -1.453125 L 1.65625 -3.78125 C 1.675781 -3.507812 1.691406 -3.238281 1.703125 -2.96875 C 1.722656 -2.695312 1.734375 -2.40625 1.734375 -2.09375 L 1.734375 0 L 0.953125 0 L 0.953125 -5.046875 Z M 1.71875 -5.046875 "/></g></g></g><g fill="#003030" fill-opacity="1"><g transform="translate(52.097965, 191.630863)"><g><path d="M 0.953125 -5.046875 L 4.53125 -5.046875 L 4.53125 -4.296875 L 1.734375 -4.296875 L 1.734375 -2.953125 L 4.140625 -2.953125 L 4.140625 -2.21875 L 1.734375 -2.21875 L 1.734375 -0.75 L 4.53125 -0.75 L 4.53125 0 L 0.953125 0 Z M 0.953125 -5.046875 "/></g></g></g><g fill="#003030" fill-opacity="1"><g transform="translate(59.529334, 191.630863)"><g/></g></g><g fill="#003030" fill-opacity="1"><g transform="translate(64.253507, 191.630863)"><g><path d="M 5.015625 -3.453125 C 5.015625 -3.128906 4.914062 -2.832031 4.71875 -2.5625 C 4.53125 -2.300781 4.28125 -2.109375 3.96875 -1.984375 L 5.265625 0 L 4.3125 0 L 3.109375 -1.875 L 1.734375 -1.875 L 1.734375 0 L 0.953125 0 L 0.953125 -5.046875 L 3.421875 -5.046875 C 3.691406 -5.046875 3.945312 -4.976562 4.1875 -4.84375 C 4.4375 -4.707031 4.632812 -4.519531 4.78125 -4.28125 C 4.9375 -4.039062 5.015625 -3.765625 5.015625 -3.453125 Z M 3.25 -4.296875 L 1.734375 -4.296875 L 1.734375 -2.625 L 3.375 -2.625 C 3.539062 -2.625 3.6875 -2.660156 3.8125 -2.734375 C 3.9375 -2.816406 4.035156 -2.921875 4.109375 -3.046875 C 4.179688 -3.171875 4.21875 -3.3125 4.21875 -3.46875 C 4.21875 -3.625 4.171875 -3.765625 4.078125 -3.890625 C 3.992188 -4.015625 3.878906 -4.113281 3.734375 -4.1875 C 3.585938 -4.257812 3.425781 -4.296875 3.25 -4.296875 Z M 3.25 -4.296875 "/></g></g></g><g fill="#003030" fill-opacity="1"><g transform="translate(72.282474, 191.630863)"><g><path d="M 0.953125 -5.046875 L 4.53125 -5.046875 L 4.53125 -4.296875 L 1.734375 -4.296875 L 1.734375 -2.953125 L 4.140625 -2.953125 L 4.140625 -2.21875 L 1.734375 -2.21875 L 1.734375 -0.75 L 4.53125 -0.75 L 4.53125 0 L 0.953125 0 Z M 0.953125 -5.046875 "/></g></g></g><g fill="#003030" fill-opacity="1"><g transform="translate(79.713843, 191.630863)"><g><path d="M 4.9375 -5.046875 L 5.71875 -5.046875 L 5.71875 0 L 4.96875 0 L 1.59375 -3.890625 C 1.625 -3.597656 1.65625 -3.300781 1.6875 -3 C 1.71875 -2.695312 1.734375 -2.394531 1.734375 -2.09375 L 1.734375 0 L 0.953125 0 L 0.953125 -5.046875 L 1.671875 -5.046875 L 5.046875 -1.046875 C 5.015625 -1.285156 4.988281 -1.539062 4.96875 -1.8125 C 4.957031 -2.082031 4.945312 -2.351562 4.9375 -2.625 C 4.9375 -2.894531 4.9375 -3.148438 4.9375 -3.390625 Z M 4.9375 -5.046875 "/></g></g></g><g fill="#003030" fill-opacity="1"><g transform="translate(88.484407, 191.630863)"><g><path d="M 2.046875 0 L 2.046875 -4.296875 L 0.4375 -4.296875 L 0.4375 -5.046875 L 4.484375 -5.046875 L 4.484375 -4.296875 L 2.828125 -4.296875 L 2.828125 0 Z M 2.046875 0 "/></g></g></g><g fill="#003030" fill-opacity="1"><g transform="translate(95.526977, 191.630863)"><g><path d="M 4.671875 0 L 4.15625 -1.21875 L 1.703125 -1.21875 L 1.171875 0 L 0.375 0 L 2.53125 -5.046875 L 3.375 -5.046875 L 5.515625 0 Z M 2.53125 -3.1875 L 2.015625 -1.96875 L 3.828125 -1.96875 L 3.296875 -3.21875 C 3.234375 -3.375 3.171875 -3.535156 3.109375 -3.703125 C 3.046875 -3.867188 2.984375 -4.039062 2.921875 -4.21875 C 2.859375 -4.03125 2.796875 -3.847656 2.734375 -3.671875 C 2.671875 -3.503906 2.601562 -3.34375 2.53125 -3.1875 Z M 2.53125 -3.1875 "/></g></g></g><g fill="#003030" fill-opacity="1"><g transform="translate(103.527145, 191.630863)"><g><path d="M 4.5 -0.75 L 4.5 0 L 0.953125 0 L 0.953125 -5.046875 L 1.734375 -5.046875 L 1.734375 -0.75 Z M 4.5 -0.75 "/></g></g></g><g fill="#003030" fill-opacity="1"><g transform="translate(110.821715, 191.630863)"><g/></g></g><g fill="#003030" fill-opacity="1"><g transform="translate(115.545888, 191.630863)"><g><path d="M 1.109375 -1.53125 C 1.335938 -1.25 1.578125 -1.023438 1.828125 -0.859375 C 2.085938 -0.703125 2.40625 -0.625 2.78125 -0.625 C 2.976562 -0.625 3.164062 -0.648438 3.34375 -0.703125 C 3.53125 -0.765625 3.679688 -0.847656 3.796875 -0.953125 C 3.910156 -1.054688 3.96875 -1.191406 3.96875 -1.359375 C 3.96875 -1.597656 3.847656 -1.773438 3.609375 -1.890625 C 3.367188 -2.003906 3.035156 -2.09375 2.609375 -2.15625 C 2.066406 -2.25 1.632812 -2.410156 1.3125 -2.640625 C 0.988281 -2.878906 0.828125 -3.222656 0.828125 -3.671875 C 0.828125 -3.972656 0.914062 -4.226562 1.09375 -4.4375 C 1.28125 -4.65625 1.519531 -4.820312 1.8125 -4.9375 C 2.101562 -5.050781 2.421875 -5.109375 2.765625 -5.109375 C 3.210938 -5.109375 3.597656 -5.03125 3.921875 -4.875 C 4.242188 -4.726562 4.5 -4.515625 4.6875 -4.234375 L 4.15625 -3.671875 C 4 -3.890625 3.800781 -4.066406 3.5625 -4.203125 C 3.332031 -4.347656 3.0625 -4.421875 2.75 -4.421875 C 2.4375 -4.421875 2.171875 -4.359375 1.953125 -4.234375 C 1.742188 -4.109375 1.640625 -3.9375 1.640625 -3.71875 C 1.640625 -3.457031 1.75 -3.269531 1.96875 -3.15625 C 2.195312 -3.050781 2.5 -2.96875 2.875 -2.90625 C 3.125 -2.875 3.359375 -2.820312 3.578125 -2.75 C 3.804688 -2.6875 4.007812 -2.597656 4.1875 -2.484375 C 4.375 -2.378906 4.519531 -2.25 4.625 -2.09375 C 4.726562 -1.9375 4.78125 -1.742188 4.78125 -1.515625 C 4.78125 -1.191406 4.695312 -0.910156 4.53125 -0.671875 C 4.363281 -0.441406 4.125 -0.257812 3.8125 -0.125 C 3.507812 0.0078125 3.148438 0.078125 2.734375 0.078125 C 2.296875 0.078125 1.894531 0 1.53125 -0.15625 C 1.175781 -0.3125 0.859375 -0.5625 0.578125 -0.90625 Z M 1.109375 -1.53125 "/></g></g></g><g fill="#003030" fill-opacity="1"><g transform="translate(123.049257, 191.630863)"><g><path d="M 0.953125 -5.046875 L 4.53125 -5.046875 L 4.53125 -4.296875 L 1.734375 -4.296875 L 1.734375 -2.953125 L 4.140625 -2.953125 L 4.140625 -2.21875 L 1.734375 -2.21875 L 1.734375 -0.75 L 4.53125 -0.75 L 4.53125 0 L 0.953125 0 Z M 0.953125 -5.046875 "/></g></g></g><g fill="#003030" fill-opacity="1"><g transform="translate(130.48062, 191.630863)"><g><path d="M 5.015625 -3.453125 C 5.015625 -3.128906 4.914062 -2.832031 4.71875 -2.5625 C 4.53125 -2.300781 4.28125 -2.109375 3.96875 -1.984375 L 5.265625 0 L 4.3125 0 L 3.109375 -1.875 L 1.734375 -1.875 L 1.734375 0 L 0.953125 0 L 0.953125 -5.046875 L 3.421875 -5.046875 C 3.691406 -5.046875 3.945312 -4.976562 4.1875 -4.84375 C 4.4375 -4.707031 4.632812 -4.519531 4.78125 -4.28125 C 4.9375 -4.039062 5.015625 -3.765625 5.015625 -3.453125 Z M 3.25 -4.296875 L 1.734375 -4.296875 L 1.734375 -2.625 L 3.375 -2.625 C 3.539062 -2.625 3.6875 -2.660156 3.8125 -2.734375 C 3.9375 -2.816406 4.035156 -2.921875 4.109375 -3.046875 C 4.179688 -3.171875 4.21875 -3.3125 4.21875 -3.46875 C 4.21875 -3.625 4.171875 -3.765625 4.078125 -3.890625 C 3.992188 -4.015625 3.878906 -4.113281 3.734375 -4.1875 C 3.585938 -4.257812 3.425781 -4.296875 3.25 -4.296875 Z M 3.25 -4.296875 "/></g></g></g><g fill="#003030" fill-opacity="1"><g transform="translate(138.50958, 191.630863)"><g><path d="M 5.46875 -5.046875 L 3.328125 0 L 2.5 0 L 0.375 -5.046875 L 1.25 -5.046875 L 2.515625 -2 C 2.585938 -1.832031 2.660156 -1.648438 2.734375 -1.453125 C 2.816406 -1.265625 2.890625 -1.082031 2.953125 -0.90625 C 3.023438 -1.082031 3.097656 -1.265625 3.171875 -1.453125 C 3.242188 -1.640625 3.316406 -1.820312 3.390625 -2 L 4.546875 -5.046875 Z M 5.46875 -5.046875 "/></g></g></g><g fill="#003030" fill-opacity="1"><g transform="translate(146.459346, 191.630863)"><g><path d="M 3.671875 0 L 0.859375 0 L 0.859375 -0.734375 L 1.875 -0.734375 L 1.875 -4.296875 L 0.859375 -4.296875 L 0.859375 -5.046875 L 3.671875 -5.046875 L 3.671875 -4.296875 L 2.65625 -4.296875 L 2.65625 -0.734375 L 3.671875 -0.734375 Z M 3.671875 0 "/></g></g></g><g fill="#003030" fill-opacity="1"><g transform="translate(153.098709, 191.630863)"><g><path d="M 5.171875 -0.671875 C 5.054688 -0.554688 4.898438 -0.441406 4.703125 -0.328125 C 4.503906 -0.210938 4.273438 -0.113281 4.015625 -0.03125 C 3.753906 0.0390625 3.476562 0.078125 3.1875 0.078125 C 2.820312 0.078125 2.476562 0.015625 2.15625 -0.109375 C 1.84375 -0.234375 1.566406 -0.40625 1.328125 -0.625 C 1.085938 -0.851562 0.898438 -1.128906 0.765625 -1.453125 C 0.640625 -1.773438 0.578125 -2.128906 0.578125 -2.515625 C 0.578125 -2.890625 0.644531 -3.234375 0.78125 -3.546875 C 0.925781 -3.859375 1.117188 -4.128906 1.359375 -4.359375 C 1.609375 -4.585938 1.890625 -4.765625 2.203125 -4.890625 C 2.523438 -5.015625 2.863281 -5.078125 3.21875 -5.078125 C 3.519531 -5.078125 3.800781 -5.035156 4.0625 -4.953125 C 4.320312 -4.867188 4.550781 -4.757812 4.75 -4.625 C 4.957031 -4.5 5.125 -4.367188 5.25 -4.234375 L 4.75 -3.640625 C 4.539062 -3.835938 4.304688 -4 4.046875 -4.125 C 3.785156 -4.25 3.5 -4.3125 3.1875 -4.3125 C 2.882812 -4.3125 2.59375 -4.238281 2.3125 -4.09375 C 2.03125 -3.945312 1.800781 -3.738281 1.625 -3.46875 C 1.457031 -3.207031 1.375 -2.890625 1.375 -2.515625 C 1.375 -2.117188 1.460938 -1.785156 1.640625 -1.515625 C 1.816406 -1.242188 2.050781 -1.039062 2.34375 -0.90625 C 2.632812 -0.769531 2.945312 -0.703125 3.28125 -0.703125 C 3.625 -0.703125 3.921875 -0.765625 4.171875 -0.890625 C 4.421875 -1.023438 4.628906 -1.164062 4.796875 -1.3125 Z M 5.171875 -0.671875 "/></g></g></g><g fill="#003030" fill-opacity="1"><g transform="translate(160.976474, 191.630863)"><g><path d="M 0.953125 -5.046875 L 4.53125 -5.046875 L 4.53125 -4.296875 L 1.734375 -4.296875 L 1.734375 -2.953125 L 4.140625 -2.953125 L 4.140625 -2.21875 L 1.734375 -2.21875 L 1.734375 -0.75 L 4.53125 -0.75 L 4.53125 0 L 0.953125 0 Z M 0.953125 -5.046875 "/></g></g></g></svg>