<?xml version="1.0" encoding="UTF-8"?>
<svg width="64px" height="64px" viewBox="0 0 64 64" version="1.1" xmlns="http://www.w3.org/2000/svg" xmlns:xlink="http://www.w3.org/1999/xlink">
    <title>icon/social/facebook</title>
    <g id="icon/social/facebook" stroke="none" stroke-width="1" fill="none" fill-rule="evenodd">
        <g id="Group">
            <polygon id="Path" points="0 0 64 0 64 64 0 64"></polygon>
            <path d="M35.15,53.5357 C46.2447735,52.1239823 54.3351121,42.3372018 53.6347558,31.1749239 C52.9343996,20.0126461 43.6842189,11.3138639 32.5,11.299994 C21.3009534,11.2916604 12.0271036,19.9953794 11.3258192,31.1724503 C10.6245348,42.3495212 18.7377398,52.1441584 29.85,53.5357 L29.85,37.799994 L24.55,37.799994 L24.55,32.5 L29.85,32.5 L29.85,28.1169 C29.85,24.57385 30.221,23.2886 30.91,21.99275 C31.5887034,20.7106421 32.6376949,19.662574 33.9204,18.985 C34.9327,18.44175 36.19145,18.1158 38.39095,17.97535 C39.2628,17.9197 40.3917,17.9886 41.77765,18.18735 L41.77765,23.22235 L40.45,23.22235 C38.01995,23.22235 37.0156,23.3363 36.4167,23.65695 C36.0593384,23.8407453 35.7683953,24.1316884 35.5846,24.48905 C35.2666,25.08795 35.15,25.68155 35.15,28.11425 L35.15,32.5 L41.775,32.5 L40.45,37.799994 L35.15,37.799994 L35.15,53.5357 Z M32.5,59 C17.86405,59 6,47.13595 6,32.5 C6,17.86405 17.86405,6 32.5,6 C47.13595,6 59,17.86405 59,32.5 C59,47.13595 47.13595,59 32.5,59 Z" id="Shape" fill="#DDDDDD" fill-rule="nonzero"></path>
        </g>
    </g>
</svg>