<?xml version="1.0" encoding="UTF-8"?>
<svg width="64px" height="64px" viewBox="0 0 64 64" version="1.1" xmlns="http://www.w3.org/2000/svg" xmlns:xlink="http://www.w3.org/1999/xlink">
    <title>icon/social/instagram</title>
    <g id="icon/social/instagram" stroke="none" stroke-width="1" fill="none" fill-rule="evenodd">
        <g id="Group">
            <polygon id="Path" points="0 0 64 0 64 64 0 64"></polygon>
            <path d="M32.5,24.55 C28.1093362,24.55 24.55,28.1093362 24.55,32.5 C24.55,36.8906638 28.1093362,40.45 32.5,40.45 C36.8906638,40.45 40.45,36.8906638 40.45,32.5 C40.45,28.1093362 36.8906638,24.55 32.5,24.55 Z M32.5,19.25 C39.8177729,19.25 45.75,25.1822271 45.75,32.5 C45.75,39.8177729 39.8177729,45.75 32.5,45.75 C25.1822271,45.75 19.25,39.8177729 19.25,32.5 C19.25,25.1822271 25.1822271,19.25 32.5,19.25 L32.5,19.25 Z M49.725,18.5875 C49.725,20.4169432 48.2419432,21.9 46.4125,21.9 C44.5830568,21.9 43.1,20.4169432 43.1,18.5875 C43.1,16.7580568 44.5830568,15.275 46.4125,15.275 C48.2419432,15.275 49.725,16.7580568 49.725,18.5875 Z M32.5,11.3 C25.9439,11.3 24.8733,11.31855 21.82315,11.4537 C19.74555,11.55175 18.35165,11.83 17.05845,12.3335 C15.90835,12.7787 15.0789,13.31135 14.19645,14.19645 C13.3670182,14.9978076 12.7292859,15.9761469 12.33085,17.05845 C11.82735,18.35695 11.5491,19.7482 11.4537,21.82315 C11.3159,24.74875 11.3,25.77165 11.3,32.5 C11.3,39.0561 11.31855,40.1267 11.4537,43.17685 C11.55175,45.2518 11.83,46.64835 12.33085,47.9389 C12.78135,49.09165 13.31135,49.9211 14.19115,50.8009 C15.0842,51.6913 15.91365,52.22395 17.05315,52.66385 C18.36225,53.17 19.75615,53.4509 21.82315,53.5463 C24.74875,53.6841 25.77165,53.7 32.5,53.7 C39.0561,53.7 40.1267,53.68145 43.17685,53.5463 C45.24915,53.44825 46.6457,53.17 47.9389,52.66915 C49.08635,52.2213 49.9211,51.68865 50.8009,50.80885 C51.69395,49.9158 52.2266,49.08635 52.6665,47.94685 C53.17,46.6404 53.4509,45.24385 53.5463,43.17685 C53.6841,40.25125 53.7,39.22835 53.7,32.5 C53.7,25.9439 53.68145,24.8733 53.5463,21.82315 C53.44825,19.75085 53.17,18.35165 52.6665,17.05845 C52.2671254,15.9772549 51.6305461,14.9992952 50.80355,14.19645 C50.0025442,13.3665921 49.0241009,12.7287921 47.94155,12.33085 C46.64305,11.82735 45.24915,11.5491 43.17685,11.4537 C40.25125,11.3159 39.22835,11.3 32.5,11.3 Z M32.5,6 C39.70005,6 40.5984,6.0265 43.4233,6.159 C46.24555,6.2915 48.1668,6.73405 49.8575,7.39125 C51.6065,8.06435 53.0799,8.97595 54.5533,10.4467 C55.9008082,11.7714243 56.9434771,13.3738607 57.60875,15.1425 C58.2633,16.83055 58.7085,18.75445 58.841,21.5767 C58.96555,24.4016 59,25.29995 59,32.5 C59,39.70005 58.9735,40.5984 58.841,43.4233 C58.7085,46.24555 58.2633,48.1668 57.60875,49.8575 C56.945393,51.6271077 55.9024698,53.229935 54.5533,54.5533 C53.2281978,55.900346 51.6258697,56.9429444 49.8575,57.60875 C48.16945,58.2633 46.24555,58.7085 43.4233,58.841 C40.5984,58.96555 39.70005,59 32.5,59 C25.29995,59 24.4016,58.9735 21.5767,58.841 C18.75445,58.7085 16.8332,58.2633 15.1425,57.60875 C13.3731644,56.9448544 11.7704471,55.9020029 10.4467,54.5533 C9.09892706,53.2287922 8.05621777,51.6262936 7.39125,49.8575 C6.73405,48.16945 6.2915,46.24555 6.159,43.4233 C6.03445,40.5984 6,39.70005 6,32.5 C6,25.29995 6.0265,24.4016 6.159,21.5767 C6.2915,18.7518 6.73405,16.8332 7.39125,15.1425 C8.05437567,13.3727754 9.09732964,11.7699008 10.4467,10.4467 C11.7708281,9.09846276 13.3734357,8.05568249 15.1425,7.39125 C16.8332,6.73405 18.7518,6.2915 21.5767,6.159 C24.4016,6.03445 25.29995,6 32.5,6 Z" id="Shape" fill="#DDDDDD" fill-rule="nonzero"></path>
        </g>
    </g>
</svg>